<svg width="720" height="1024" viewBox="0 0 720 1024" fill="none" xmlns="http://www.w3.org/2000/svg">
<rect width="720" height="1024" fill="#FFE162"/>
<path fill-rule="evenodd" clip-rule="evenodd" d="M370.5 113C264.546 75.1202 104.263 82.0767 19.026 85.7761H19.0259H19.0257H19.0256C12.1769 86.0734 5.81261 86.3496 0 86.5798V0H720V478.514C691.837 487.723 659.112 484.637 627.5 473.5C584.016 458.181 581.19 419.087 578.068 375.906C575.818 344.769 573.413 311.506 555.5 283.5C502.559 200.733 452.345 142.261 370.5 113ZM708.693 1024C679.425 1007.03 650.244 981.469 638.5 952.5C616 897 499.5 804 377.5 799.5C282.229 795.986 272.942 787.898 223.682 744.998L223.681 744.996L223.678 744.994L223.678 744.993C209.858 732.958 192.892 718.183 170 700C119.432 659.836 54.2295 656.787 0 665.187V1024H708.693ZM0 479.42C55.6202 455.819 107.954 476.104 153.043 493.58C204.359 513.471 246.29 529.724 273 473.5C307.436 401.011 320.5 333 273 268C243.933 228.224 154.889 232.698 74.498 236.736C47.8874 238.073 22.225 239.363 0 238.984L0 479.42Z" fill="#91C483"/>
<path d="M637.155 396.729C653.362 384.245 679.638 372.942 695.845 385.427C712.052 397.911 712.052 418.152 695.845 430.637C679.638 443.121 653.362 443.121 637.155 430.637C620.948 418.152 620.948 409.214 637.155 396.729Z" fill="#FFE162"/>
<path d="M163.466 336.078C163.22 301.252 175.376 257.343 210.202 257.59C245.028 257.836 273.46 286.268 273.706 321.094C273.953 355.92 245.92 383.953 211.094 383.706C176.268 383.46 163.712 370.904 163.466 336.078Z" fill="#FFE162"/>
<path d="M541.727 751.45C528.226 719.346 522.73 674.119 555.021 661.073C587.312 648.027 624.435 663.477 637.936 695.58C651.437 727.684 636.205 764.284 603.913 777.33C571.622 790.376 555.228 783.553 541.727 751.45Z" fill="#91C483"/>
<path d="M73.2523 173.621C42.8802 163.916 10.7649 145.514 28.2358 128.358C45.7066 111.202 84.4909 105.162 114.863 114.867C145.235 124.572 155.694 146.347 138.223 163.503C120.752 180.659 103.624 183.326 73.2523 173.621Z" fill="#91C483"/>
<path d="M629.158 88.7193C622.522 66.61 622.086 36.4154 644.287 30.0929C666.488 23.7704 689.865 36.5682 696.501 58.6775C703.137 80.7867 690.519 103.835 668.318 110.158C646.117 116.48 635.793 110.829 629.158 88.7193Z" fill="#FFE162"/>
<path d="M138.167 273.126C136.119 265.844 136.124 255.858 143.361 253.66C150.598 251.461 158.125 255.582 160.172 262.863C162.22 270.144 158.012 277.83 150.775 280.028C143.538 282.227 140.214 280.407 138.167 273.126Z" fill="#FFE162"/>
<path d="M576.167 49.1256C574.119 41.8442 574.124 31.8583 581.361 29.6597C588.598 27.4611 596.125 31.5816 598.172 38.863C600.22 46.1445 596.012 53.8295 588.775 56.0281C581.538 58.2267 578.214 56.4071 576.167 49.1256Z" fill="#FFE162"/>
<path d="M174.116 461.816C164.823 441.208 161.092 413.999 183.46 410.724C205.828 407.448 231.494 421.499 240.787 442.107C250.079 462.716 239.479 482.078 217.111 485.354C194.743 488.63 183.409 482.425 174.116 461.816Z" fill="#FFE162"/>
<path d="M599.496 863.638C583.051 848.126 569.231 824.394 588.662 812.84C608.093 801.287 637.177 804.495 653.623 820.006C670.069 835.517 667.649 857.458 648.217 869.012C628.786 880.566 615.942 879.149 599.496 863.638Z" fill="#91C483"/>
<path d="M187.746 203.832C165.24 202.613 139.758 196.782 147.997 184.794C156.235 172.806 181.158 164.076 203.663 165.295C226.168 166.514 237.734 177.22 229.495 189.208C221.257 201.196 210.251 205.051 187.746 203.832Z" fill="#91C483"/>
<path d="M616.297 156.327C613.214 145.363 613.221 130.327 624.118 127.016C635.016 123.706 646.349 129.91 649.432 140.874C652.515 151.838 646.18 163.41 635.282 166.72C624.385 170.031 619.38 167.291 616.297 156.327Z" fill="#FFE162"/>
<path d="M606.247 366.298C611.91 362.344 621.09 358.765 626.753 362.718C632.416 366.672 632.416 373.082 626.753 377.035C621.09 380.988 611.91 380.988 606.247 377.035C600.584 373.082 600.584 370.251 606.247 366.298Z" fill="#FFE162"/>
<path d="M665.912 337.671C672.797 339.494 680.861 344.265 679.094 351.164C677.326 358.062 670.312 362.177 663.428 360.355C656.544 358.533 652.396 351.464 654.163 344.565C655.931 337.667 659.028 335.849 665.912 337.671Z" fill="#FFE162"/>
</svg>
