<svg width="512" height="512" viewBox="0 0 512 512" fill="none" xmlns="http://www.w3.org/2000/svg">
<path d="M69.123 93.6513C152.622 86.5275 91.1201 155.985 195.719 152.868C247.315 151.331 274.833 162.801 327.702 159.992C377.981 157.321 319.173 89.6442 397.734 89.6442C419.282 89.6442 421.498 240.937 341.619 212.975C311.092 202.29 279.667 206.297 279.667 231.675M369.452 420.457H434.995" stroke="#835DBB" stroke-width="2.69684" stroke-linecap="round" stroke-linejoin="round" stroke-dasharray="11.69 11.69"/>
<path d="M105.171 54H101.081C100.928 54 100.814 53.9676 100.742 53.9029C100.677 53.8301 100.645 53.7168 100.645 53.5631V45.6991C100.645 45.5454 100.677 45.4362 100.742 45.3715C100.814 45.2986 100.928 45.2622 101.081 45.2622H105.171C106.183 45.2622 106.931 45.4645 107.416 45.869C107.91 46.2735 108.157 46.8965 108.157 47.7379V51.5243C108.157 52.3657 107.91 52.9887 107.416 53.3932C106.931 53.7977 106.183 54 105.171 54ZM103.399 47.5802V51.7063H104.844C105.038 51.7063 105.179 51.6578 105.268 51.5607C105.365 51.4636 105.414 51.3139 105.414 51.1117V48.1627C105.414 47.9604 105.365 47.8148 105.268 47.7258C105.179 47.6287 105.038 47.5802 104.844 47.5802H103.399ZM112.866 47.8107L112.296 49.6554H114.201L113.631 47.8107C113.599 47.7379 113.562 47.6853 113.522 47.653C113.489 47.6206 113.449 47.6044 113.4 47.6044H113.097C113.048 47.6044 113.004 47.6206 112.964 47.653C112.931 47.6853 112.899 47.7379 112.866 47.8107ZM112.175 53.5631C112.175 53.7168 112.138 53.8301 112.065 53.9029C112.001 53.9676 111.892 54 111.738 54H109.954C109.8 54 109.687 53.9676 109.614 53.9029C109.549 53.8301 109.517 53.7168 109.517 53.5631V50.3593C109.517 50.1165 109.553 49.8374 109.626 49.5219C109.707 49.2064 109.828 48.8382 109.99 48.4175L111.046 45.6627C111.095 45.5252 111.167 45.424 111.264 45.3593C111.37 45.2946 111.503 45.2622 111.665 45.2622H114.929C115.083 45.2622 115.209 45.2946 115.306 45.3593C115.411 45.424 115.488 45.5252 115.536 45.6627L116.592 48.4175C116.754 48.8382 116.871 49.2064 116.944 49.5219C117.025 49.8374 117.065 50.1165 117.065 50.3593V53.5631C117.065 53.7168 117.029 53.8301 116.956 53.9029C116.891 53.9676 116.782 54 116.629 54H114.796C114.634 54 114.513 53.9676 114.432 53.9029C114.359 53.8301 114.323 53.7168 114.323 53.5631V51.8641H112.175V53.5631ZM120.882 54H119.001C118.847 54 118.734 53.9676 118.661 53.9029C118.596 53.8301 118.564 53.7168 118.564 53.5631V45.6991C118.564 45.5454 118.596 45.4362 118.661 45.3715C118.734 45.2986 118.847 45.2622 119.001 45.2622H124.413C124.567 45.2622 124.676 45.2986 124.741 45.3715C124.814 45.4362 124.85 45.5454 124.85 45.6991V47.1433C124.85 47.297 124.814 47.4103 124.741 47.4831C124.676 47.5478 124.567 47.5802 124.413 47.5802H121.319V48.8423H123.43C123.584 48.8423 123.693 48.8787 123.758 48.9515C123.831 49.0162 123.867 49.1255 123.867 49.2792V50.7355C123.867 50.8892 123.831 51.0025 123.758 51.0753C123.693 51.14 123.584 51.1724 123.43 51.1724H121.319V53.5631C121.319 53.7168 121.282 53.8301 121.209 53.9029C121.145 53.9676 121.035 54 120.882 54ZM130.192 54H128.226C128.072 54 127.959 53.9676 127.886 53.9029C127.821 53.8301 127.789 53.7168 127.789 53.5631V47.6044H126.005C125.851 47.6044 125.738 47.5721 125.665 47.5074C125.6 47.4345 125.568 47.3213 125.568 47.1676V45.6991C125.568 45.5454 125.6 45.4362 125.665 45.3715C125.738 45.2986 125.851 45.2622 126.005 45.2622H132.413C132.566 45.2622 132.676 45.2986 132.74 45.3715C132.813 45.4362 132.85 45.5454 132.85 45.6991V47.1676C132.85 47.3213 132.813 47.4345 132.74 47.5074C132.676 47.5721 132.566 47.6044 132.413 47.6044H130.629V53.5631C130.629 53.7168 130.592 53.8301 130.52 53.9029C130.455 53.9676 130.346 54 130.192 54ZM136.711 47.8107L136.141 49.6554H138.046L137.476 47.8107C137.444 47.7379 137.407 47.6853 137.367 47.653C137.334 47.6206 137.294 47.6044 137.245 47.6044H136.942C136.893 47.6044 136.849 47.6206 136.808 47.653C136.776 47.6853 136.744 47.7379 136.711 47.8107ZM136.02 53.5631C136.02 53.7168 135.983 53.8301 135.91 53.9029C135.846 53.9676 135.736 54 135.583 54H133.799C133.645 54 133.532 53.9676 133.459 53.9029C133.394 53.8301 133.362 53.7168 133.362 53.5631V50.3593C133.362 50.1165 133.398 49.8374 133.471 49.5219C133.552 49.2064 133.673 48.8382 133.835 48.4175L134.891 45.6627C134.94 45.5252 135.012 45.424 135.109 45.3593C135.215 45.2946 135.348 45.2622 135.51 45.2622H138.774C138.928 45.2622 139.054 45.2946 139.151 45.3593C139.256 45.424 139.333 45.5252 139.381 45.6627L140.437 48.4175C140.599 48.8382 140.716 49.2064 140.789 49.5219C140.87 49.8374 140.91 50.1165 140.91 50.3593V53.5631C140.91 53.7168 140.874 53.8301 140.801 53.9029C140.736 53.9676 140.627 54 140.473 54H138.641C138.479 54 138.358 53.9676 138.277 53.9029C138.204 53.8301 138.168 53.7168 138.168 53.5631V51.8641H136.02V53.5631ZM145.151 47.4467V49.0001H146.062C146.272 49.0001 146.414 48.9475 146.486 48.8423C146.559 48.729 146.596 48.5915 146.596 48.4297V48.0171C146.596 47.8552 146.559 47.7218 146.486 47.6166C146.414 47.5033 146.272 47.4467 146.062 47.4467H145.151ZM144.715 54H142.846C142.692 54 142.579 53.9676 142.506 53.9029C142.441 53.8301 142.409 53.7168 142.409 53.5631V45.6991C142.409 45.5454 142.441 45.4362 142.506 45.3715C142.579 45.2986 142.692 45.2622 142.846 45.2622H146.887C147.793 45.2622 148.416 45.4524 148.756 45.8326C149.104 46.2048 149.278 46.6902 149.278 47.2889V47.8472C149.278 48.187 149.225 48.4782 149.12 48.7209C149.023 48.9556 148.849 49.1255 148.598 49.2306C149.035 49.2792 149.387 49.4572 149.654 49.7646C149.929 50.072 150.066 50.4806 150.066 50.9903V53.5631C150.066 53.7168 150.03 53.8301 149.957 53.9029C149.892 53.9676 149.783 54 149.63 54H147.748C147.595 54 147.481 53.9676 147.409 53.9029C147.344 53.8301 147.312 53.7168 147.312 53.5631V51.7063C147.312 51.5283 147.275 51.3989 147.202 51.318C147.138 51.229 147.02 51.1845 146.85 51.1845H145.151V53.5631C145.151 53.7168 145.115 53.8301 145.042 53.9029C144.977 53.9676 144.868 54 144.715 54Z" fill="#835DBB"/>
<rect x="91.5966" y="60.371" width="67.4211" height="72.8147" rx="10.7874" fill="#FFE162"/>
<rect x="99.6872" y="68.4616" width="51.24" height="56.6337" rx="9.43895" fill="#FFE162"/>
<g clip-path="url(#clip0_22_3)">
<path d="M110.229 84.01C109.556 84.1551 108.956 84.643 108.64 85.3222C108.495 85.6321 108.468 85.7771 108.468 86.2519C108.475 86.7266 108.501 86.8717 108.653 87.1882C109.062 88.0322 109.992 88.5597 110.901 88.4674C112.833 88.2696 113.638 85.9486 112.247 84.5903C111.752 84.1089 110.921 83.865 110.229 84.01Z" fill="#835DBB"/>
<path d="M117.403 84.5046C116.737 84.7156 116.282 85.3551 116.282 86.0936C116.282 86.3178 116.328 86.608 116.381 86.7398C116.533 87.1025 116.902 87.4717 117.271 87.63L117.594 87.7685L129.318 87.7553C140.382 87.7355 141.055 87.7289 141.253 87.6168C141.846 87.2937 142.162 86.7596 142.162 86.0871C142.156 85.4211 141.846 84.9068 141.239 84.5837L140.976 84.4386L129.338 84.4254C119.513 84.4188 117.653 84.4254 117.403 84.5046Z" fill="#835DBB"/>
<path d="M110.084 94.4875C109.471 94.6787 108.917 95.1535 108.64 95.7403C108.389 96.2744 108.389 97.0656 108.64 97.5997C109.009 98.3844 109.701 98.8525 110.578 98.8987C111.264 98.9317 111.719 98.7734 112.214 98.3185C112.708 97.8635 112.939 97.3492 112.939 96.67C112.939 96.2612 112.899 96.0898 112.754 95.7535C112.524 95.2392 112.009 94.7578 111.502 94.5666C111.126 94.4215 110.42 94.3886 110.084 94.4875Z" fill="#835DBB"/>
<path d="M117.621 95.0216C116.809 95.1864 116.282 95.826 116.282 96.67C116.282 97.369 116.631 97.9162 117.271 98.213L117.568 98.3514H129.239C140.118 98.3514 140.923 98.3448 141.147 98.2393C141.503 98.0745 141.78 97.8173 141.984 97.4679C142.136 97.2107 142.162 97.092 142.162 96.67C142.162 96.248 142.136 96.1293 141.984 95.8722C141.78 95.5227 141.503 95.2655 141.147 95.1007C140.923 94.9952 140.118 94.9886 129.404 94.9754C123.074 94.9754 117.772 94.9952 117.621 95.0216Z" fill="#835DBB"/>
<path d="M109.972 104.978C109.444 105.15 108.91 105.631 108.653 106.152C108.501 106.468 108.475 106.613 108.468 107.088C108.468 107.596 108.488 107.695 108.686 108.09C109.167 109.066 110.196 109.561 111.218 109.297C112.273 109.033 112.932 108.189 112.932 107.121C112.939 105.572 111.449 104.497 109.972 104.978Z" fill="#835DBB"/>
<path d="M117.238 105.723C116.625 106.013 116.282 106.554 116.282 107.246C116.282 107.748 116.506 108.242 116.862 108.539C117.37 108.961 116.625 108.934 129.371 108.921L140.976 108.901L141.239 108.756C141.846 108.433 142.156 107.919 142.162 107.253C142.162 106.58 141.846 106.046 141.253 105.723C141.055 105.611 140.382 105.605 129.305 105.591L117.568 105.572L117.238 105.723Z" fill="#835DBB"/>
</g>
<rect x="99.6872" y="68.4616" width="51.24" height="56.6337" rx="9.43895" stroke="#835DBB" stroke-width="2.69684" stroke-miterlimit="16" stroke-linejoin="round" stroke-dasharray="8.76 8.76"/>
<path d="M251.745 115.825H247.557C247.418 115.825 247.317 115.796 247.251 115.738C247.193 115.673 247.164 115.571 247.164 115.433V108.365C247.164 108.227 247.193 108.128 247.251 108.07C247.317 108.005 247.418 107.972 247.557 107.972H251.036C251.749 107.972 252.276 108.11 252.618 108.387C252.959 108.656 253.13 109.074 253.13 109.641V110.164C253.13 110.47 253.076 110.721 252.967 110.917C252.865 111.106 252.705 111.248 252.487 111.342C252.952 111.386 253.297 111.546 253.523 111.822C253.748 112.099 253.861 112.502 253.861 113.033V114.036C253.861 114.647 253.687 115.098 253.337 115.389C252.996 115.68 252.465 115.825 251.745 115.825ZM249.618 109.826V111.004H250.545C250.683 111.004 250.785 110.968 250.851 110.895C250.923 110.822 250.96 110.713 250.96 110.568V110.263C250.96 110.117 250.923 110.008 250.851 109.935C250.785 109.863 250.683 109.826 250.545 109.826H249.618ZM249.618 112.684V113.971H251.036C251.174 113.971 251.276 113.935 251.341 113.862C251.414 113.789 251.451 113.68 251.451 113.535V113.109C251.451 112.964 251.414 112.858 251.341 112.793C251.276 112.72 251.174 112.684 251.036 112.684H249.618ZM261.754 113.764C261.754 114.098 261.703 114.404 261.601 114.68C261.506 114.949 261.332 115.182 261.077 115.378C260.83 115.567 260.488 115.716 260.052 115.825C259.616 115.934 259.06 115.989 258.383 115.989C257.707 115.989 257.151 115.934 256.714 115.825C256.278 115.716 255.933 115.567 255.678 115.378C255.431 115.182 255.257 114.949 255.155 114.68C255.06 114.404 255.013 114.098 255.013 113.764V108.365C255.013 108.227 255.042 108.128 255.1 108.07C255.166 108.005 255.267 107.972 255.406 107.972H257.118C257.256 107.972 257.354 108.005 257.413 108.07C257.478 108.128 257.511 108.227 257.511 108.365V113.338C257.511 113.484 257.565 113.607 257.674 113.709C257.783 113.804 258.027 113.851 258.405 113.851C258.79 113.851 259.038 113.804 259.147 113.709C259.256 113.607 259.31 113.484 259.31 113.338V108.365C259.31 108.227 259.339 108.128 259.398 108.07C259.463 108.005 259.565 107.972 259.703 107.972H261.361C261.499 107.972 261.597 108.005 261.655 108.07C261.721 108.128 261.754 108.227 261.754 108.365V113.764ZM266.052 110.263L265.539 111.92H267.252L266.739 110.263C266.71 110.197 266.677 110.15 266.641 110.121C266.612 110.092 266.576 110.077 266.532 110.077H266.259C266.216 110.077 266.176 110.092 266.139 110.121C266.11 110.15 266.081 110.197 266.052 110.263ZM265.43 115.433C265.43 115.571 265.398 115.673 265.332 115.738C265.274 115.796 265.176 115.825 265.038 115.825H263.434C263.296 115.825 263.194 115.796 263.129 115.738C263.071 115.673 263.042 115.571 263.042 115.433V112.553C263.042 112.335 263.074 112.084 263.14 111.8C263.213 111.517 263.322 111.186 263.467 110.808L264.416 108.332C264.46 108.208 264.525 108.117 264.612 108.059C264.707 108.001 264.827 107.972 264.972 107.972H267.906C268.044 107.972 268.157 108.001 268.244 108.059C268.339 108.117 268.408 108.208 268.452 108.332L269.401 110.808C269.546 111.186 269.651 111.517 269.717 111.8C269.79 112.084 269.826 112.335 269.826 112.553V115.433C269.826 115.571 269.793 115.673 269.728 115.738C269.67 115.796 269.571 115.825 269.433 115.825H267.786C267.641 115.825 267.532 115.796 267.459 115.738C267.394 115.673 267.361 115.571 267.361 115.433V113.906H265.43V115.433ZM274.444 115.825H272.677C272.539 115.825 272.437 115.796 272.372 115.738C272.314 115.673 272.285 115.571 272.285 115.433V110.077H270.681C270.543 110.077 270.441 110.048 270.376 109.99C270.318 109.924 270.289 109.823 270.289 109.684V108.365C270.289 108.227 270.318 108.128 270.376 108.07C270.441 108.005 270.543 107.972 270.681 107.972H276.44C276.579 107.972 276.677 108.005 276.735 108.07C276.8 108.128 276.833 108.227 276.833 108.365V109.684C276.833 109.823 276.8 109.924 276.735 109.99C276.677 110.048 276.579 110.077 276.44 110.077H274.837V115.433C274.837 115.571 274.804 115.673 274.739 115.738C274.681 115.796 274.583 115.825 274.444 115.825ZM286.236 115.825H282.8C281.891 115.825 281.215 115.643 280.772 115.28C280.335 114.916 280.117 114.356 280.117 113.6V110.197C280.117 109.441 280.335 108.881 280.772 108.517C281.215 108.154 281.891 107.972 282.8 107.972H285.527C285.665 107.972 285.764 108.005 285.822 108.07C285.887 108.128 285.92 108.227 285.92 108.365V109.684C285.92 109.823 285.887 109.924 285.822 109.99C285.764 110.048 285.665 110.077 285.527 110.077H283.258C283.033 110.077 282.866 110.124 282.757 110.219C282.648 110.306 282.593 110.441 282.593 110.623V113.229C282.593 113.411 282.633 113.546 282.713 113.633C282.8 113.72 282.928 113.764 283.095 113.764H284.153V112.062C284.153 111.924 284.182 111.826 284.24 111.768C284.306 111.702 284.407 111.67 284.546 111.67H286.236C286.374 111.67 286.472 111.702 286.531 111.768C286.596 111.826 286.629 111.924 286.629 112.062V115.433C286.629 115.571 286.596 115.673 286.531 115.738C286.472 115.796 286.374 115.825 286.236 115.825ZM290.425 109.935V111.331H291.243C291.432 111.331 291.559 111.284 291.624 111.19C291.69 111.088 291.723 110.964 291.723 110.819V110.448C291.723 110.303 291.69 110.183 291.624 110.088C291.559 109.986 291.432 109.935 291.243 109.935H290.425ZM290.032 115.825H288.352C288.214 115.825 288.112 115.796 288.047 115.738C287.989 115.673 287.96 115.571 287.96 115.433V108.365C287.96 108.227 287.989 108.128 288.047 108.07C288.112 108.005 288.214 107.972 288.352 107.972H291.984C292.799 107.972 293.359 108.143 293.664 108.485C293.977 108.819 294.133 109.255 294.133 109.794V110.295C294.133 110.601 294.086 110.862 293.991 111.081C293.904 111.291 293.748 111.444 293.522 111.539C293.915 111.582 294.231 111.742 294.471 112.019C294.718 112.295 294.842 112.662 294.842 113.12V115.433C294.842 115.571 294.809 115.673 294.744 115.738C294.686 115.796 294.588 115.825 294.449 115.825H292.759C292.621 115.825 292.519 115.796 292.453 115.738C292.395 115.673 292.366 115.571 292.366 115.433V113.764C292.366 113.604 292.333 113.487 292.268 113.415C292.21 113.335 292.104 113.295 291.952 113.295H290.425V115.433C290.425 115.571 290.392 115.673 290.326 115.738C290.268 115.796 290.17 115.825 290.032 115.825ZM302.666 113.764C302.666 114.098 302.615 114.404 302.513 114.68C302.418 114.949 302.244 115.182 301.989 115.378C301.742 115.567 301.397 115.716 300.953 115.825C300.517 115.934 299.961 115.989 299.284 115.989C298.608 115.989 298.048 115.934 297.605 115.825C297.161 115.716 296.812 115.567 296.558 115.378C296.31 115.182 296.136 114.949 296.034 114.68C295.939 114.404 295.892 114.098 295.892 113.764V110.044C295.892 109.71 295.939 109.408 296.034 109.139C296.136 108.863 296.31 108.626 296.558 108.43C296.812 108.234 297.161 108.081 297.605 107.972C298.048 107.863 298.608 107.808 299.284 107.808C299.961 107.808 300.517 107.863 300.953 107.972C301.397 108.081 301.742 108.234 301.989 108.43C302.244 108.626 302.418 108.863 302.513 109.139C302.615 109.408 302.666 109.71 302.666 110.044V113.764ZM298.368 113.371C298.368 113.517 298.423 113.64 298.532 113.742C298.641 113.837 298.892 113.884 299.284 113.884C299.677 113.884 299.928 113.837 300.037 113.742C300.146 113.64 300.201 113.517 300.201 113.371V110.437C300.201 110.299 300.146 110.183 300.037 110.088C299.928 109.986 299.677 109.935 299.284 109.935C298.892 109.935 298.641 109.986 298.532 110.088C298.423 110.183 298.368 110.299 298.368 110.437V113.371ZM310.74 113.764C310.74 114.098 310.689 114.404 310.588 114.68C310.493 114.949 310.319 115.182 310.064 115.378C309.817 115.567 309.475 115.716 309.039 115.825C308.602 115.934 308.046 115.989 307.37 115.989C306.694 115.989 306.137 115.934 305.701 115.825C305.265 115.716 304.919 115.567 304.665 115.378C304.418 115.182 304.243 114.949 304.141 114.68C304.047 114.404 304 114.098 304 113.764V108.365C304 108.227 304.029 108.128 304.087 108.07C304.152 108.005 304.254 107.972 304.392 107.972H306.105C306.243 107.972 306.341 108.005 306.399 108.07C306.465 108.128 306.497 108.227 306.497 108.365V113.338C306.497 113.484 306.552 113.607 306.661 113.709C306.77 113.804 307.014 113.851 307.392 113.851C307.777 113.851 308.024 113.804 308.133 113.709C308.243 113.607 308.297 113.484 308.297 113.338V108.365C308.297 108.227 308.326 108.128 308.384 108.07C308.45 108.005 308.552 107.972 308.69 107.972H310.348C310.486 107.972 310.584 108.005 310.642 108.07C310.708 108.128 310.74 108.227 310.74 108.365V113.764ZM314.275 115.825H312.585C312.446 115.825 312.345 115.796 312.279 115.738C312.221 115.673 312.192 115.571 312.192 115.433V108.365C312.192 108.227 312.221 108.128 312.279 108.07C312.345 108.005 312.446 107.972 312.585 107.972H315.922C316.911 107.972 317.587 108.168 317.951 108.561C318.315 108.954 318.496 109.466 318.496 110.099V111.495C318.496 112.128 318.315 112.64 317.951 113.033C317.587 113.426 316.911 113.622 315.922 113.622H314.668V115.433C314.668 115.571 314.635 115.673 314.57 115.738C314.512 115.796 314.413 115.825 314.275 115.825ZM314.646 110.012V111.659H315.628C315.839 111.659 315.977 111.604 316.042 111.495C316.108 111.386 316.14 111.262 316.14 111.124V110.546C316.14 110.408 316.108 110.284 316.042 110.175C315.977 110.066 315.839 110.012 315.628 110.012H314.646Z" fill="#835DBB"/>
<rect x="252.614" y="121.855" width="60.5957" height="65.4434" rx="9.69531" fill="#FFE162"/>
<rect x="259.885" y="129.127" width="46.0527" height="50.9004" rx="8.4834" fill="#FFE162"/>
<g clip-path="url(#clip1_22_3)">
<path fill-rule="evenodd" clip-rule="evenodd" d="M274.063 139.509C273.586 139.606 272.762 140.021 272.33 140.368C271.409 141.112 270.852 142.214 270.784 143.425C270.739 144.215 270.858 144.783 271.233 145.556C271.483 146.073 271.585 146.209 272.04 146.664C272.472 147.096 272.642 147.227 273.097 147.448C273.784 147.783 274.273 147.903 275.001 147.903C275.773 147.903 276.489 147.727 277.052 147.403C277.274 147.272 277.291 147.244 277.416 146.766C277.666 145.8 278.302 144.738 278.99 144.152L279.308 143.879L279.274 143.368C279.194 142.203 278.632 141.101 277.728 140.368C277.291 140.01 276.478 139.612 275.967 139.504C275.472 139.402 274.552 139.402 274.063 139.509ZM288.61 139.504C288.127 139.612 287.309 140.021 286.877 140.368C286.025 141.061 285.451 142.129 285.337 143.254L285.303 143.601L285.548 143.766C286.633 144.476 287.548 145.948 287.73 147.244C287.764 147.516 287.781 147.539 288.002 147.624C288.531 147.823 288.986 147.903 289.577 147.903C290.332 147.903 290.81 147.789 291.509 147.448C291.963 147.227 292.134 147.096 292.566 146.664C293.02 146.209 293.122 146.073 293.373 145.556C293.748 144.783 293.867 144.215 293.821 143.425C293.719 141.618 292.526 140.112 290.764 139.561C290.338 139.424 289.105 139.39 288.61 139.504ZM279.149 145.471C279.78 144.635 280.763 144.039 281.808 143.851C282.263 143.771 283.178 143.828 283.667 143.965C284.4 144.175 284.939 144.499 285.513 145.073C285.894 145.454 286.087 145.698 286.264 146.039C287.224 147.874 286.809 150.011 285.235 151.341C283.178 153.08 279.95 152.415 278.734 150.005C278.376 149.295 278.296 148.96 278.296 148.085C278.296 147.408 278.319 147.227 278.427 146.863C278.609 146.295 278.791 145.948 279.149 145.471ZM272.125 148.34C269.971 148.795 268.312 150.471 267.869 152.642C267.761 153.182 267.755 153.386 267.767 155.705L267.784 158.188L268.636 158.433C269.591 158.711 271.017 159.029 271.875 159.166C272.443 159.257 273.87 159.421 274.097 159.421C274.216 159.421 274.222 159.399 274.25 158.239C274.273 157.211 274.296 156.989 274.427 156.495C274.711 155.409 275.404 154.222 276.205 153.443C276.83 152.835 277.899 152.182 278.598 151.971C278.728 151.932 278.836 151.886 278.836 151.864C278.836 151.846 278.757 151.756 278.66 151.659C277.984 151.017 277.382 149.693 277.268 148.59L277.228 148.227L274.921 148.232C272.921 148.232 272.551 148.249 272.125 148.34ZM287.73 148.795C287.747 148.624 287.775 148.426 287.792 148.352L287.815 148.227H289.878C291.668 148.227 292.003 148.244 292.452 148.335C294.628 148.784 296.293 150.454 296.731 152.642C296.839 153.171 296.85 153.421 296.85 155.654V158.097L296.413 158.302C295.236 158.847 293.321 159.285 291.651 159.393C291.338 159.41 291.031 159.438 290.963 159.45C290.844 159.478 290.844 159.456 290.81 158.401L290.81 158.382C290.758 156.881 290.611 156.205 290.116 155.216C289.372 153.733 288.099 152.585 286.576 152.023C286.4 151.96 286.246 151.898 286.235 151.892C286.224 151.881 286.383 151.67 286.587 151.415C287.19 150.67 287.633 149.653 287.73 148.795ZM280.126 152.665C278.751 152.807 277.399 153.534 276.512 154.603C276.097 155.097 275.586 156.086 275.415 156.722C275.296 157.154 275.29 157.307 275.268 159.882L275.251 162.587L275.95 162.791C277.438 163.229 278.694 163.496 280.087 163.683C281.217 163.837 283.706 163.899 284.712 163.803C286.593 163.615 288.213 163.234 289.338 162.712L289.815 162.49L289.787 159.921C289.758 157.057 289.741 156.915 289.366 156.012C288.571 154.12 286.866 152.869 284.809 152.659C284.133 152.591 280.78 152.597 280.126 152.665ZM292.778 160.323C293.447 160.323 293.99 160.865 293.99 161.535V163.813H296.268C296.938 163.813 297.48 164.356 297.48 165.025C297.48 165.694 296.938 166.237 296.268 166.237H293.99V168.516C293.99 169.185 293.447 169.728 292.778 169.728C292.109 169.728 291.566 169.185 291.566 168.516V166.237H289.287C288.618 166.237 288.076 165.694 288.076 165.025C288.076 164.356 288.618 163.813 289.287 163.813H291.566V161.535C291.566 160.865 292.109 160.323 292.778 160.323Z" fill="#835DBB"/>
</g>
<rect x="259.885" y="129.127" width="46.0527" height="50.9004" rx="8.4834" stroke="#835DBB" stroke-width="2.42383" stroke-miterlimit="16" stroke-linejoin="round" stroke-dasharray="7.88 7.88"/>
<path d="M360.446 54.6968H358.699C358.562 54.6968 358.462 54.6681 358.397 54.6105C358.339 54.5458 358.311 54.4451 358.311 54.3085V49.0119H356.725C356.588 49.0119 356.487 48.9831 356.423 48.9256C356.365 48.8609 356.336 48.7602 356.336 48.6236V47.3183C356.336 47.1816 356.365 47.0846 356.423 47.027C356.487 46.9623 356.588 46.9299 356.725 46.9299H362.421C362.557 46.9299 362.654 46.9623 362.712 47.027C362.776 47.0846 362.809 47.1816 362.809 47.3183V48.6236C362.809 48.7602 362.776 48.8609 362.712 48.9256C362.654 48.9831 362.557 49.0119 362.421 49.0119H360.835V54.3085C360.835 54.4451 360.802 54.5458 360.738 54.6105C360.68 54.6681 360.583 54.6968 360.446 54.6968ZM366.242 49.1953L365.735 50.835H367.428L366.921 49.1953C366.892 49.1306 366.86 49.0838 366.824 49.055C366.795 49.0263 366.759 49.0119 366.716 49.0119H366.446C366.403 49.0119 366.364 49.0263 366.328 49.055C366.299 49.0838 366.27 49.1306 366.242 49.1953ZM365.627 54.3085C365.627 54.4451 365.594 54.5458 365.53 54.6105C365.472 54.6681 365.375 54.6968 365.238 54.6968H363.653C363.516 54.6968 363.415 54.6681 363.351 54.6105C363.293 54.5458 363.264 54.4451 363.264 54.3085V51.4606C363.264 51.2449 363.297 50.9968 363.361 50.7163C363.433 50.4358 363.541 50.1086 363.685 49.7346L364.623 47.2859C364.667 47.1637 364.731 47.0738 364.818 47.0162C364.911 46.9587 365.03 46.9299 365.174 46.9299H368.075C368.212 46.9299 368.323 46.9587 368.41 47.0162C368.503 47.0738 368.572 47.1637 368.615 47.2859L369.553 49.7346C369.697 50.1086 369.801 50.4358 369.866 50.7163C369.938 50.9968 369.974 51.2449 369.974 51.4606V54.3085C369.974 54.4451 369.942 54.5458 369.877 54.6105C369.819 54.6681 369.722 54.6968 369.586 54.6968H367.957C367.813 54.6968 367.705 54.6681 367.633 54.6105C367.568 54.5458 367.536 54.4451 367.536 54.3085V52.7983H365.627V54.3085ZM373.302 54.6968H371.694C371.558 54.6968 371.457 54.6681 371.392 54.6105C371.335 54.5458 371.306 54.4451 371.306 54.3085V47.3183C371.306 47.1816 371.335 47.0846 371.392 47.027C371.457 46.9623 371.558 46.9299 371.694 46.9299H373.431C373.546 46.9299 373.64 46.9551 373.711 47.0054C373.791 47.0558 373.862 47.1385 373.927 47.2536L374.898 49.0119C374.934 49.0766 374.963 49.1234 374.984 49.1521C375.013 49.1809 375.049 49.1953 375.092 49.1953H375.189C375.232 49.1953 375.265 49.1809 375.286 49.1521C375.315 49.1234 375.348 49.0766 375.383 49.0119L376.344 47.2536C376.408 47.1385 376.477 47.0558 376.549 47.0054C376.628 46.9551 376.725 46.9299 376.84 46.9299H378.587C378.724 46.9299 378.821 46.9623 378.879 47.027C378.943 47.0846 378.976 47.1816 378.976 47.3183V54.3085C378.976 54.4451 378.943 54.5458 378.879 54.6105C378.821 54.6681 378.724 54.6968 378.587 54.6968H376.926C376.789 54.6968 376.689 54.6681 376.624 54.6105C376.566 54.5458 376.538 54.4451 376.538 54.3085V50.5113L375.901 51.6872C375.837 51.8094 375.757 51.8993 375.664 51.9568C375.578 52.0072 375.466 52.0324 375.33 52.0324H374.898C374.761 52.0324 374.646 52.0072 374.553 51.9568C374.467 51.8993 374.391 51.8094 374.326 51.6872L373.69 50.5113V54.3085C373.69 54.4451 373.657 54.5458 373.593 54.6105C373.535 54.6681 373.438 54.6968 373.302 54.6968ZM384.991 54.6968H380.849C380.712 54.6968 380.611 54.6681 380.547 54.6105C380.489 54.5458 380.46 54.4451 380.46 54.3085V47.3183C380.46 47.1816 380.489 47.0846 380.547 47.027C380.611 46.9623 380.712 46.9299 380.849 46.9299H384.29C384.995 46.9299 385.516 47.0666 385.854 47.3399C386.192 47.6059 386.361 48.0195 386.361 48.5804V49.0982C386.361 49.4002 386.307 49.6483 386.199 49.8425C386.099 50.0295 385.94 50.1697 385.725 50.2632C386.185 50.3064 386.526 50.4646 386.749 50.7379C386.972 51.0112 387.084 51.4103 387.084 51.9353V52.9277C387.084 53.5318 386.911 53.9777 386.566 54.2653C386.228 54.553 385.703 54.6968 384.991 54.6968ZM382.888 48.7638V49.9288H383.804C383.941 49.9288 384.042 49.8929 384.106 49.8209C384.178 49.749 384.214 49.6412 384.214 49.4973V49.1953C384.214 49.0514 384.178 48.9436 384.106 48.8717C384.042 48.7997 383.941 48.7638 383.804 48.7638H382.888ZM382.888 51.5901V52.863H384.29C384.427 52.863 384.527 52.827 384.592 52.7551C384.664 52.6832 384.7 52.5753 384.7 52.4315V52.0108C384.7 51.867 384.664 51.7627 384.592 51.6979C384.527 51.626 384.427 51.5901 384.29 51.5901H382.888ZM391.092 49.1953L390.585 50.835H392.279L391.772 49.1953C391.743 49.1306 391.711 49.0838 391.675 49.055C391.646 49.0263 391.61 49.0119 391.567 49.0119H391.297C391.254 49.0119 391.215 49.0263 391.179 49.055C391.15 49.0838 391.121 49.1306 391.092 49.1953ZM390.478 54.3085C390.478 54.4451 390.445 54.5458 390.381 54.6105C390.323 54.6681 390.226 54.6968 390.089 54.6968H388.504C388.367 54.6968 388.266 54.6681 388.201 54.6105C388.144 54.5458 388.115 54.4451 388.115 54.3085V51.4606C388.115 51.2449 388.148 50.9968 388.212 50.7163C388.284 50.4358 388.392 50.1086 388.536 49.7346L389.474 47.2859C389.518 47.1637 389.582 47.0738 389.669 47.0162C389.762 46.9587 389.881 46.9299 390.025 46.9299H392.926C393.063 46.9299 393.174 46.9587 393.261 47.0162C393.354 47.0738 393.423 47.1637 393.466 47.2859L394.404 49.7346C394.548 50.1086 394.652 50.4358 394.717 50.7163C394.789 50.9968 394.825 51.2449 394.825 51.4606V54.3085C394.825 54.4451 394.793 54.5458 394.728 54.6105C394.67 54.6681 394.573 54.6968 394.437 54.6968H392.808C392.664 54.6968 392.556 54.6681 392.484 54.6105C392.419 54.5458 392.387 54.4451 392.387 54.3085V52.7983H390.478V54.3085ZM398.217 54.6968H396.545C396.409 54.6968 396.308 54.6681 396.243 54.6105C396.186 54.5458 396.157 54.4451 396.157 54.3085V47.3183C396.157 47.1816 396.186 47.0846 396.243 47.027C396.308 46.9623 396.409 46.9299 396.545 46.9299H398.217C398.354 46.9299 398.451 46.9623 398.508 47.027C398.573 47.0846 398.606 47.1816 398.606 47.3183V49.6591H400.407V47.3183C400.407 47.1816 400.436 47.0846 400.493 47.027C400.558 46.9623 400.659 46.9299 400.795 46.9299H402.467C402.604 46.9299 402.701 46.9623 402.759 47.027C402.823 47.0846 402.856 47.1816 402.856 47.3183V54.3085C402.856 54.4451 402.823 54.5458 402.759 54.6105C402.701 54.6681 402.604 54.6968 402.467 54.6968H400.795C400.659 54.6968 400.558 54.6681 400.493 54.6105C400.436 54.5458 400.407 54.4451 400.407 54.3085V51.9137H398.606V54.3085C398.606 54.4451 398.573 54.5458 398.508 54.6105C398.451 54.6681 398.354 54.6968 398.217 54.6968ZM408.761 54.6968H407.153C407.017 54.6968 406.916 54.6681 406.851 54.6105C406.794 54.5458 406.765 54.4451 406.765 54.3085V47.3183C406.765 47.1816 406.794 47.0846 406.851 47.027C406.916 46.9623 407.017 46.9299 407.153 46.9299H408.89C409.005 46.9299 409.099 46.9551 409.171 47.0054C409.25 47.0558 409.322 47.1385 409.386 47.2536L410.357 49.0119C410.393 49.0766 410.422 49.1234 410.444 49.1521C410.472 49.1809 410.508 49.1953 410.551 49.1953H410.649C410.692 49.1953 410.724 49.1809 410.746 49.1521C410.774 49.1234 410.807 49.0766 410.843 49.0119L411.803 47.2536C411.868 47.1385 411.936 47.0558 412.008 47.0054C412.087 46.9551 412.184 46.9299 412.299 46.9299H414.047C414.183 46.9299 414.28 46.9623 414.338 47.027C414.403 47.0846 414.435 47.1816 414.435 47.3183V54.3085C414.435 54.4451 414.403 54.5458 414.338 54.6105C414.28 54.6681 414.183 54.6968 414.047 54.6968H412.385C412.249 54.6968 412.148 54.6681 412.083 54.6105C412.026 54.5458 411.997 54.4451 411.997 54.3085V50.5113L411.361 51.6872C411.296 51.8094 411.217 51.8993 411.123 51.9568C411.037 52.0072 410.925 52.0324 410.789 52.0324H410.357C410.221 52.0324 410.106 52.0072 410.012 51.9568C409.926 51.8993 409.85 51.8094 409.786 51.6872L409.149 50.5113V54.3085C409.149 54.4451 409.117 54.5458 409.052 54.6105C408.995 54.6681 408.897 54.6968 408.761 54.6968ZM421.313 54.6968H416.308C416.171 54.6968 416.071 54.6681 416.006 54.6105C415.948 54.5458 415.92 54.4451 415.92 54.3085V47.3183C415.92 47.1816 415.948 47.0846 416.006 47.027C416.071 46.9623 416.171 46.9299 416.308 46.9299H421.313C421.45 46.9299 421.547 46.9623 421.605 47.027C421.669 47.0846 421.702 47.1816 421.702 47.3183V48.5804C421.702 48.717 421.669 48.8177 421.605 48.8824C421.547 48.94 421.45 48.9687 421.313 48.9687H418.336V49.7994H420.44C420.576 49.7994 420.673 49.8317 420.731 49.8965C420.796 49.954 420.828 50.0511 420.828 50.1877V51.342C420.828 51.4786 420.796 51.5793 420.731 51.644C420.673 51.7015 420.576 51.7303 420.44 51.7303H418.336V52.658H421.313C421.45 52.658 421.547 52.6904 421.605 52.7551C421.669 52.8126 421.702 52.9097 421.702 53.0464V54.3085C421.702 54.4451 421.669 54.5458 421.605 54.6105C421.547 54.6681 421.45 54.6968 421.313 54.6968ZM424.973 54.6968H423.366C423.229 54.6968 423.129 54.6681 423.064 54.6105C423.007 54.5458 422.978 54.4451 422.978 54.3085V47.3183C422.978 47.1816 423.007 47.0846 423.064 47.027C423.129 46.9623 423.229 46.9299 423.366 46.9299H425.103C425.218 46.9299 425.311 46.9551 425.383 47.0054C425.462 47.0558 425.534 47.1385 425.599 47.2536L426.57 49.0119C426.606 49.0766 426.635 49.1234 426.656 49.1521C426.685 49.1809 426.721 49.1953 426.764 49.1953H426.861C426.904 49.1953 426.937 49.1809 426.958 49.1521C426.987 49.1234 427.019 49.0766 427.055 49.0119L428.015 47.2536C428.08 47.1385 428.149 47.0558 428.22 47.0054C428.3 46.9551 428.397 46.9299 428.512 46.9299H430.259C430.396 46.9299 430.493 46.9623 430.55 47.027C430.615 47.0846 430.648 47.1816 430.648 47.3183V54.3085C430.648 54.4451 430.615 54.5458 430.55 54.6105C430.493 54.6681 430.396 54.6968 430.259 54.6968H428.598C428.461 54.6968 428.361 54.6681 428.296 54.6105C428.238 54.5458 428.21 54.4451 428.21 54.3085V50.5113L427.573 51.6872C427.508 51.8094 427.429 51.8993 427.336 51.9568C427.25 52.0072 427.138 52.0324 427.001 52.0324H426.57C426.433 52.0324 426.318 52.0072 426.225 51.9568C426.138 51.8993 426.063 51.8094 425.998 51.6872L425.362 50.5113V54.3085C425.362 54.4451 425.329 54.5458 425.265 54.6105C425.207 54.6681 425.11 54.6968 424.973 54.6968ZM436.663 54.6968H432.521C432.384 54.6968 432.283 54.6681 432.219 54.6105C432.161 54.5458 432.132 54.4451 432.132 54.3085V47.3183C432.132 47.1816 432.161 47.0846 432.219 47.027C432.283 46.9623 432.384 46.9299 432.521 46.9299H435.962C436.667 46.9299 437.188 47.0666 437.526 47.3399C437.864 47.6059 438.033 48.0195 438.033 48.5804V49.0982C438.033 49.4002 437.979 49.6483 437.871 49.8425C437.77 50.0295 437.612 50.1697 437.397 50.2632C437.857 50.3064 438.198 50.4646 438.421 50.7379C438.644 51.0112 438.756 51.4103 438.756 51.9353V52.9277C438.756 53.5318 438.583 53.9777 438.238 54.2653C437.9 54.553 437.375 54.6968 436.663 54.6968ZM434.559 48.7638V49.9288H435.476C435.613 49.9288 435.714 49.8929 435.778 49.8209C435.85 49.749 435.886 49.6412 435.886 49.4973V49.1953C435.886 49.0514 435.85 48.9436 435.778 48.8717C435.714 48.7997 435.613 48.7638 435.476 48.7638H434.559ZM434.559 51.5901V52.863H435.962C436.098 52.863 436.199 52.827 436.264 52.7551C436.336 52.6832 436.372 52.5753 436.372 52.4315V52.0108C436.372 51.867 436.336 51.7627 436.264 51.6979C436.199 51.626 436.098 51.5901 435.962 51.5901H434.559ZM445.343 54.6968H440.337C440.201 54.6968 440.1 54.6681 440.035 54.6105C439.978 54.5458 439.949 54.4451 439.949 54.3085V47.3183C439.949 47.1816 439.978 47.0846 440.035 47.027C440.1 46.9623 440.201 46.9299 440.337 46.9299H445.343C445.479 46.9299 445.576 46.9623 445.634 47.027C445.699 47.0846 445.731 47.1816 445.731 47.3183V48.5804C445.731 48.717 445.699 48.8177 445.634 48.8824C445.576 48.94 445.479 48.9687 445.343 48.9687H442.365V49.7994H444.469C444.605 49.7994 444.703 49.8317 444.76 49.8965C444.825 49.954 444.857 50.0511 444.857 50.1877V51.342C444.857 51.4786 444.825 51.5793 444.76 51.644C444.703 51.7015 444.605 51.7303 444.469 51.7303H442.365V52.658H445.343C445.479 52.658 445.576 52.6904 445.634 52.7551C445.699 52.8126 445.731 52.9097 445.731 53.0464V54.3085C445.731 54.4451 445.699 54.5458 445.634 54.6105C445.576 54.6681 445.479 54.6968 445.343 54.6968ZM449.445 48.8717V50.2524H450.254C450.441 50.2524 450.567 50.2057 450.632 50.1122C450.696 50.0115 450.729 49.8893 450.729 49.7454V49.3787C450.729 49.2348 450.696 49.1162 450.632 49.0227C450.567 48.922 450.441 48.8717 450.254 48.8717H449.445ZM449.057 54.6968H447.395C447.259 54.6968 447.158 54.6681 447.093 54.6105C447.036 54.5458 447.007 54.4451 447.007 54.3085V47.3183C447.007 47.1816 447.036 47.0846 447.093 47.027C447.158 46.9623 447.259 46.9299 447.395 46.9299H450.988C451.793 46.9299 452.347 47.0989 452.649 47.4369C452.958 47.7678 453.113 48.1992 453.113 48.7314V49.2276C453.113 49.5297 453.066 49.7886 452.972 50.0043C452.886 50.2129 452.732 50.3639 452.509 50.4574C452.897 50.5006 453.21 50.6588 453.447 50.932C453.692 51.2053 453.814 51.5685 453.814 52.0216V54.3085C453.814 54.4451 453.782 54.5458 453.717 54.6105C453.659 54.6681 453.562 54.6968 453.426 54.6968H451.753C451.617 54.6968 451.516 54.6681 451.451 54.6105C451.394 54.5458 451.365 54.4451 451.365 54.3085V52.658C451.365 52.4998 451.333 52.3847 451.268 52.3128C451.211 52.2337 451.106 52.1942 450.955 52.1942H449.445V54.3085C449.445 54.4451 449.413 54.5458 449.348 54.6105C449.29 54.6681 449.193 54.6968 449.057 54.6968Z" fill="#835DBB"/>
<rect x="375.569" y="60.6933" width="59.9298" height="64.7242" rx="9.58877" fill="#FFE162"/>
<rect x="382.761" y="67.8849" width="45.5467" height="50.3411" rx="8.39017" fill="#FFE162"/>
<path fill-rule="evenodd" clip-rule="evenodd" d="M401.243 80.5062C400.207 80.6919 399.233 81.283 398.608 82.1104C398.254 82.5832 398.074 82.9266 397.894 83.4895C397.787 83.8497 397.764 84.0298 397.764 84.6997C397.764 85.5665 397.843 85.8986 398.197 86.6022C399.402 88.9888 402.599 89.6474 404.637 87.925C406.196 86.6078 406.607 84.4914 405.656 82.6733C405.481 82.3356 405.29 82.0935 404.913 81.7164C404.344 81.1479 403.809 80.827 403.083 80.6188C402.599 80.4837 401.693 80.4274 401.243 80.5062ZM399.577 89.2365C398.214 89.3772 396.875 90.0977 395.997 91.1559C395.586 91.6456 395.079 92.6251 394.91 93.2555C394.792 93.6833 394.786 93.8352 394.764 96.3851L394.747 99.0644L395.439 99.2671C396.914 99.7005 398.158 99.965 399.537 100.151C400.657 100.303 403.123 100.365 404.119 100.269C405.982 100.083 407.586 99.7061 408.701 99.1883L409.174 98.9687L409.146 96.4245C409.117 93.5876 409.101 93.4469 408.729 92.5519C407.941 90.6775 406.252 89.4391 404.215 89.2309C403.545 89.1633 400.224 89.169 399.577 89.2365ZM412.631 96.8237C413.293 96.8237 413.83 97.3603 413.83 98.0223V100.281H416.089C416.751 100.281 417.287 100.818 417.287 101.48C417.287 102.142 416.751 102.678 416.089 102.678H413.83V104.937C413.83 105.599 413.293 106.136 412.631 106.136C411.969 106.136 411.433 105.599 411.433 104.937V102.678H409.174C408.512 102.678 407.975 102.142 407.975 101.48C407.975 100.818 408.512 100.281 409.174 100.281H411.433V98.0223C411.433 97.3603 411.969 96.8237 412.631 96.8237Z" fill="#835DBB"/>
<rect x="382.761" y="67.8849" width="45.5467" height="50.3411" rx="8.39017" stroke="#835DBB" stroke-width="2.39719" stroke-miterlimit="16" stroke-linejoin="round" stroke-dasharray="7.79 7.79"/>
<path d="M440.43 383.914H436.453C436.294 383.914 436.176 383.88 436.101 383.813C436.034 383.738 436 383.62 436 383.461V381.988C436 381.829 436.034 381.715 436.101 381.648C436.176 381.573 436.294 381.535 436.453 381.535H439.839C439.948 381.535 440.027 381.502 440.078 381.434C440.136 381.359 440.166 381.271 440.166 381.17C440.166 381.027 440.136 380.923 440.078 380.855C440.027 380.788 439.948 380.751 439.839 380.742L437.951 380.478C437.363 380.394 436.889 380.201 436.529 379.899C436.176 379.597 436 379.094 436 378.389V377.067C436 376.354 436.231 375.809 436.692 375.431C437.154 375.045 437.791 374.852 438.605 374.852H442.129C442.288 374.852 442.402 374.89 442.469 374.966C442.544 375.033 442.582 375.146 442.582 375.305V376.803C442.582 376.962 442.544 377.08 442.469 377.155C442.402 377.223 442.288 377.256 442.129 377.256H439.197C439.088 377.256 439.004 377.294 438.945 377.369C438.886 377.436 438.857 377.525 438.857 377.634C438.857 377.743 438.886 377.835 438.945 377.911C439.004 377.986 439.088 378.028 439.197 378.036L441.072 378.288C441.659 378.372 442.133 378.565 442.494 378.867C442.855 379.169 443.035 379.672 443.035 380.377V381.699C443.035 382.412 442.8 382.961 442.33 383.347C441.869 383.725 441.236 383.914 440.43 383.914ZM450.705 383.914H444.865C444.706 383.914 444.588 383.88 444.513 383.813C444.445 383.738 444.412 383.62 444.412 383.461V375.305C444.412 375.146 444.445 375.033 444.513 374.966C444.588 374.89 444.706 374.852 444.865 374.852H450.705C450.864 374.852 450.977 374.89 451.044 374.966C451.12 375.033 451.158 375.146 451.158 375.305V376.778C451.158 376.937 451.12 377.055 451.044 377.13C450.977 377.197 450.864 377.231 450.705 377.231H447.231V378.2H449.685C449.845 378.2 449.958 378.238 450.025 378.313C450.1 378.38 450.138 378.494 450.138 378.653V380C450.138 380.159 450.1 380.277 450.025 380.352C449.958 380.419 449.845 380.453 449.685 380.453H447.231V381.535H450.705C450.864 381.535 450.977 381.573 451.044 381.648C451.12 381.715 451.158 381.829 451.158 381.988V383.461C451.158 383.62 451.12 383.738 451.044 383.813C450.977 383.88 450.864 383.914 450.705 383.914ZM459.505 383.914H453.099C452.94 383.914 452.823 383.88 452.747 383.813C452.68 383.738 452.646 383.62 452.646 383.461V375.305C452.646 375.146 452.68 375.033 452.747 374.966C452.823 374.89 452.94 374.852 453.099 374.852H455.05C455.21 374.852 455.323 374.89 455.39 374.966C455.466 375.033 455.503 375.146 455.503 375.305V381.535H457.227V379.496C457.227 379.337 457.261 379.224 457.328 379.156C457.404 379.081 457.521 379.043 457.681 379.043H459.505C459.665 379.043 459.778 379.081 459.845 379.156C459.921 379.224 459.958 379.337 459.958 379.496V383.461C459.958 383.62 459.921 383.738 459.845 383.813C459.778 383.88 459.665 383.914 459.505 383.914ZM467.69 383.914H461.85C461.691 383.914 461.573 383.88 461.498 383.813C461.431 383.738 461.397 383.62 461.397 383.461V375.305C461.397 375.146 461.431 375.033 461.498 374.966C461.573 374.89 461.691 374.852 461.85 374.852H467.69C467.849 374.852 467.962 374.89 468.03 374.966C468.105 375.033 468.143 375.146 468.143 375.305V376.778C468.143 376.937 468.105 377.055 468.03 377.13C467.962 377.197 467.849 377.231 467.69 377.231H464.216V378.2H466.67C466.83 378.2 466.943 378.238 467.01 378.313C467.086 378.38 467.123 378.494 467.123 378.653V380C467.123 380.159 467.086 380.277 467.01 380.352C466.943 380.419 466.83 380.453 466.67 380.453H464.216V381.535H467.69C467.849 381.535 467.962 381.573 468.03 381.648C468.105 381.715 468.143 381.829 468.143 381.988V383.461C468.143 383.62 468.105 383.738 468.03 383.813C467.962 383.88 467.849 383.914 467.69 383.914ZM473.835 383.914H469.858C469.699 383.914 469.581 383.88 469.506 383.813C469.439 383.738 469.405 383.62 469.405 383.461V381.988C469.405 381.829 469.439 381.715 469.506 381.648C469.581 381.573 469.699 381.535 469.858 381.535H473.244C473.353 381.535 473.432 381.502 473.483 381.434C473.541 381.359 473.571 381.271 473.571 381.17C473.571 381.027 473.541 380.923 473.483 380.855C473.432 380.788 473.353 380.751 473.244 380.742L471.356 380.478C470.768 380.394 470.294 380.201 469.934 379.899C469.581 379.597 469.405 379.094 469.405 378.389V377.067C469.405 376.354 469.636 375.809 470.097 375.431C470.559 375.045 471.196 374.852 472.01 374.852H475.534C475.694 374.852 475.807 374.89 475.874 374.966C475.949 375.033 475.987 375.146 475.987 375.305V376.803C475.987 376.962 475.949 377.08 475.874 377.155C475.807 377.223 475.694 377.256 475.534 377.256H472.602C472.493 377.256 472.409 377.294 472.35 377.369C472.291 377.436 472.262 377.525 472.262 377.634C472.262 377.743 472.291 377.835 472.35 377.911C472.409 377.986 472.493 378.028 472.602 378.036L474.477 378.288C475.064 378.372 475.538 378.565 475.899 378.867C476.26 379.169 476.44 379.672 476.44 380.377V381.699C476.44 382.412 476.205 382.961 475.735 383.347C475.274 383.725 474.641 383.914 473.835 383.914ZM481.102 377.495L480.51 379.408H482.486L481.895 377.495C481.861 377.42 481.823 377.365 481.781 377.332C481.748 377.298 481.706 377.281 481.655 377.281H481.341C481.29 377.281 481.244 377.298 481.202 377.332C481.169 377.365 481.135 377.42 481.102 377.495ZM480.384 383.461C480.384 383.62 480.347 383.738 480.271 383.813C480.204 383.88 480.091 383.914 479.931 383.914H478.081C477.922 383.914 477.804 383.88 477.729 383.813C477.662 383.738 477.628 383.62 477.628 383.461V380.138C477.628 379.886 477.666 379.597 477.741 379.27C477.825 378.943 477.951 378.561 478.119 378.124L479.214 375.268C479.264 375.125 479.34 375.02 479.44 374.953C479.55 374.886 479.688 374.852 479.856 374.852H483.241C483.401 374.852 483.531 374.886 483.631 374.953C483.74 375.02 483.82 375.125 483.87 375.268L484.965 378.124C485.133 378.561 485.255 378.943 485.33 379.27C485.414 379.597 485.456 379.886 485.456 380.138V383.461C485.456 383.62 485.418 383.738 485.343 383.813C485.276 383.88 485.163 383.914 485.003 383.914H483.103C482.935 383.914 482.809 383.88 482.725 383.813C482.65 383.738 482.612 383.62 482.612 383.461V381.699H480.384V383.461ZM487.262 383.914C487.102 383.914 486.985 383.88 486.909 383.813C486.842 383.738 486.809 383.62 486.809 383.461V381.963C486.809 381.804 486.842 381.69 486.909 381.623C486.985 381.548 487.102 381.51 487.262 381.51H488.508V377.281H487.262C487.102 377.281 486.985 377.248 486.909 377.181C486.842 377.105 486.809 376.988 486.809 376.828V375.305C486.809 375.146 486.842 375.033 486.909 374.966C486.985 374.89 487.102 374.852 487.262 374.852H492.623C492.783 374.852 492.896 374.89 492.963 374.966C493.038 375.033 493.076 375.146 493.076 375.305V376.828C493.076 376.988 493.038 377.105 492.963 377.181C492.896 377.248 492.783 377.281 492.623 377.281H491.402V381.51H492.623C492.783 381.51 492.896 381.548 492.963 381.623C493.038 381.69 493.076 381.804 493.076 381.963V383.461C493.076 383.62 493.038 383.738 492.963 383.813C492.896 383.88 492.783 383.914 492.623 383.914H487.262Z" fill="#835DBB"/>
<rect x="429.601" y="390.41" width="69.9181" height="75.5116" rx="11.1869" fill="#FFE162"/>
<rect x="437.991" y="398.8" width="53.1378" height="58.7312" rx="9.78854" fill="#FFE162"/>
<g clip-path="url(#clip2_22_3)">
<path d="M462.99 410.754C459.617 411.082 456.503 412.325 453.772 414.428C452.44 415.452 450.713 417.377 449.716 418.948C449.286 419.624 448.446 421.344 448.146 422.164C447.811 423.079 447.449 424.485 447.272 425.571C447.06 426.902 447.06 429.429 447.272 430.76C447.579 432.645 448.064 434.16 448.89 435.847C449.791 437.684 450.727 438.988 452.229 440.497C453.738 441.999 455.042 442.934 456.879 443.836C458.565 444.662 460.081 445.146 461.965 445.454C463.297 445.665 465.823 445.665 467.155 445.454C469.039 445.146 470.555 444.662 472.241 443.836C474.078 442.934 475.382 441.999 476.891 440.497C478.393 438.988 479.329 437.684 480.23 435.847C480.831 434.625 481.131 433.826 481.459 432.597C481.889 430.958 481.992 430.064 481.992 428.165C481.992 426.267 481.889 425.373 481.459 423.734C481.131 422.505 480.831 421.706 480.23 420.484C479.329 418.647 478.393 417.343 476.891 415.834C475.382 414.332 474.078 413.397 472.241 412.495C470.562 411.669 469.005 411.177 467.189 410.891C466.185 410.734 463.945 410.659 462.99 410.754ZM473.498 421.098C474.679 421.413 475.444 422.587 475.273 423.83C475.164 424.622 475.314 424.458 469.142 430.644C462.546 437.253 462.996 436.871 461.863 436.871C460.784 436.871 460.9 436.967 457.316 433.368C455.062 431.108 454.168 430.166 454.059 429.941C453.751 429.285 453.751 428.398 454.065 427.756C454.277 427.326 454.796 426.827 455.26 426.609C455.595 426.452 455.738 426.424 456.264 426.424C457.302 426.424 457.391 426.486 459.815 428.916L461.863 430.965L466.643 426.192C469.865 422.976 471.518 421.372 471.709 421.276C472.276 420.989 472.883 420.935 473.498 421.098Z" fill="#835DBB"/>
</g>
<rect x="437.991" y="398.8" width="53.1378" height="58.7312" rx="9.78854" stroke="#835DBB" stroke-width="2.79673" stroke-miterlimit="16" stroke-linejoin="round" stroke-dasharray="9.09 9.09"/>
<path d="M292.329 287.285H290.566C290.429 287.285 290.327 287.256 290.262 287.198C290.204 287.132 290.175 287.031 290.175 286.893V281.55H288.575C288.437 281.55 288.335 281.52 288.27 281.462C288.212 281.397 288.183 281.296 288.183 281.158V279.841C288.183 279.703 288.212 279.605 288.27 279.547C288.335 279.482 288.437 279.449 288.575 279.449H294.321C294.459 279.449 294.557 279.482 294.615 279.547C294.68 279.605 294.713 279.703 294.713 279.841V281.158C294.713 281.296 294.68 281.397 294.615 281.462C294.557 281.52 294.459 281.55 294.321 281.55H292.721V286.893C292.721 287.031 292.689 287.132 292.623 287.198C292.565 287.256 292.467 287.285 292.329 287.285ZM298.231 281.408V282.801H299.047C299.236 282.801 299.363 282.754 299.428 282.66C299.493 282.558 299.526 282.435 299.526 282.29V281.92C299.526 281.774 299.493 281.655 299.428 281.56C299.363 281.459 299.236 281.408 299.047 281.408H298.231ZM297.839 287.285H296.163C296.025 287.285 295.924 287.256 295.858 287.198C295.8 287.132 295.771 287.031 295.771 286.893V279.841C295.771 279.703 295.8 279.605 295.858 279.547C295.924 279.482 296.025 279.449 296.163 279.449H299.787C300.6 279.449 301.158 279.62 301.463 279.961C301.775 280.294 301.931 280.73 301.931 281.267V281.767C301.931 282.072 301.884 282.333 301.789 282.551C301.702 282.761 301.546 282.913 301.321 283.008C301.713 283.051 302.029 283.211 302.268 283.487C302.515 283.762 302.638 284.129 302.638 284.586V286.893C302.638 287.031 302.606 287.132 302.54 287.198C302.482 287.256 302.384 287.285 302.246 287.285H300.56C300.422 287.285 300.32 287.256 300.255 287.198C300.197 287.132 300.168 287.031 300.168 286.893V285.228C300.168 285.068 300.135 284.952 300.07 284.88C300.012 284.8 299.907 284.76 299.754 284.76H298.231V286.893C298.231 287.031 298.198 287.132 298.133 287.198C298.075 287.256 297.977 287.285 297.839 287.285ZM306.699 281.735L306.188 283.389H307.896L307.385 281.735C307.356 281.669 307.323 281.622 307.287 281.593C307.258 281.564 307.222 281.55 307.178 281.55H306.906C306.863 281.55 306.823 281.564 306.786 281.593C306.757 281.622 306.728 281.669 306.699 281.735ZM306.079 286.893C306.079 287.031 306.046 287.132 305.981 287.198C305.923 287.256 305.825 287.285 305.687 287.285H304.087C303.95 287.285 303.848 287.256 303.783 287.198C303.725 287.132 303.696 287.031 303.696 286.893V284.02C303.696 283.802 303.728 283.552 303.794 283.269C303.866 282.986 303.975 282.656 304.12 282.279L305.067 279.808C305.11 279.685 305.176 279.594 305.263 279.536C305.357 279.478 305.477 279.449 305.622 279.449H308.549C308.687 279.449 308.8 279.478 308.887 279.536C308.981 279.594 309.05 279.685 309.094 279.808L310.04 282.279C310.185 282.656 310.291 282.986 310.356 283.269C310.429 283.552 310.465 283.802 310.465 284.02V286.893C310.465 287.031 310.432 287.132 310.367 287.198C310.309 287.256 310.211 287.285 310.073 287.285H308.43C308.285 287.285 308.176 287.256 308.103 287.198C308.038 287.132 308.005 287.031 308.005 286.893V285.369H306.079V286.893ZM313.833 287.285H312.2C312.062 287.285 311.961 287.256 311.896 287.198C311.837 287.132 311.808 287.031 311.808 286.893V279.841C311.808 279.703 311.837 279.605 311.896 279.547C311.961 279.482 312.062 279.449 312.2 279.449H313.332C313.47 279.449 313.586 279.471 313.68 279.514C313.782 279.558 313.88 279.634 313.974 279.743L316.085 282.159V279.841C316.085 279.703 316.114 279.605 316.172 279.547C316.238 279.482 316.339 279.449 316.477 279.449H318.11C318.247 279.449 318.345 279.482 318.403 279.547C318.469 279.605 318.501 279.703 318.501 279.841V286.893C318.501 287.031 318.469 287.132 318.403 287.198C318.345 287.256 318.247 287.285 318.11 287.285H316.477C316.339 287.285 316.238 287.256 316.172 287.198C316.114 287.132 316.085 287.031 316.085 286.893V285.554L314.224 283.302V286.893C314.224 287.031 314.192 287.132 314.127 287.198C314.068 287.256 313.971 287.285 313.833 287.285ZM323.637 287.285H320.198C320.061 287.285 319.959 287.256 319.894 287.198C319.836 287.132 319.807 287.031 319.807 286.893V285.62C319.807 285.482 319.836 285.384 319.894 285.326C319.959 285.261 320.061 285.228 320.198 285.228H323.126C323.22 285.228 323.289 285.199 323.333 285.141C323.383 285.076 323.409 284.999 323.409 284.912C323.409 284.789 323.383 284.698 323.333 284.64C323.289 284.582 323.22 284.55 323.126 284.542L321.493 284.314C320.986 284.241 320.576 284.074 320.264 283.813C319.959 283.552 319.807 283.117 319.807 282.507V281.365C319.807 280.748 320.006 280.276 320.405 279.95C320.804 279.616 321.356 279.449 322.059 279.449H325.107C325.244 279.449 325.342 279.482 325.4 279.547C325.466 279.605 325.498 279.703 325.498 279.841V281.136C325.498 281.274 325.466 281.375 325.4 281.441C325.342 281.499 325.244 281.528 325.107 281.528H322.571C322.477 281.528 322.404 281.56 322.353 281.626C322.302 281.684 322.277 281.76 322.277 281.854C322.277 281.949 322.302 282.028 322.353 282.094C322.404 282.159 322.477 282.195 322.571 282.202L324.192 282.42C324.7 282.493 325.11 282.66 325.422 282.921C325.734 283.182 325.89 283.617 325.89 284.227V285.369C325.89 285.986 325.687 286.461 325.281 286.795C324.882 287.122 324.334 287.285 323.637 287.285ZM329.921 281.735L329.41 283.389H331.118L330.607 281.735C330.578 281.669 330.545 281.622 330.509 281.593C330.48 281.564 330.443 281.55 330.4 281.55H330.128C330.084 281.55 330.044 281.564 330.008 281.593C329.979 281.622 329.95 281.669 329.921 281.735ZM329.301 286.893C329.301 287.031 329.268 287.132 329.203 287.198C329.145 287.256 329.047 287.285 328.909 287.285H327.309C327.171 287.285 327.07 287.256 327.004 287.198C326.946 287.132 326.917 287.031 326.917 286.893V284.02C326.917 283.802 326.95 283.552 327.015 283.269C327.088 282.986 327.197 282.656 327.342 282.279L328.289 279.808C328.332 279.685 328.397 279.594 328.484 279.536C328.579 279.478 328.698 279.449 328.844 279.449H331.771C331.909 279.449 332.021 279.478 332.108 279.536C332.203 279.594 332.272 279.685 332.315 279.808L333.262 282.279C333.407 282.656 333.512 282.986 333.578 283.269C333.65 283.552 333.686 283.802 333.686 284.02V286.893C333.686 287.031 333.654 287.132 333.589 287.198C333.53 287.256 333.433 287.285 333.295 287.285H331.651C331.506 287.285 331.397 287.256 331.325 287.198C331.26 287.132 331.227 287.031 331.227 286.893V285.369H329.301V286.893ZM337.109 287.285H335.422C335.284 287.285 335.182 287.256 335.117 287.198C335.059 287.132 335.03 287.031 335.03 286.893V279.841C335.03 279.703 335.059 279.605 335.117 279.547C335.182 279.482 335.284 279.449 335.422 279.449H337.109C337.247 279.449 337.345 279.482 337.403 279.547C337.468 279.605 337.501 279.703 337.501 279.841V282.344H337.936L339.057 279.808C339.108 279.678 339.176 279.587 339.264 279.536C339.351 279.478 339.463 279.449 339.601 279.449H341.277C341.4 279.449 341.484 279.482 341.527 279.547C341.571 279.605 341.567 279.692 341.516 279.808L340.406 282.344C340.813 282.366 341.135 282.511 341.375 282.779C341.622 283.04 341.745 283.389 341.745 283.824V286.893C341.745 287.031 341.712 287.132 341.647 287.198C341.589 287.256 341.491 287.285 341.353 287.285H339.677C339.539 287.285 339.438 287.256 339.372 287.198C339.314 287.132 339.285 287.031 339.285 286.893V284.771C339.285 284.655 339.256 284.564 339.198 284.499C339.14 284.433 339.053 284.401 338.937 284.401H337.501V286.893C337.501 287.031 337.468 287.132 337.403 287.198C337.345 287.256 337.247 287.285 337.109 287.285ZM346.785 287.285H343.346C343.208 287.285 343.106 287.256 343.041 287.198C342.983 287.132 342.954 287.031 342.954 286.893V285.62C342.954 285.482 342.983 285.384 343.041 285.326C343.106 285.261 343.208 285.228 343.346 285.228H346.273C346.367 285.228 346.436 285.199 346.48 285.141C346.531 285.076 346.556 284.999 346.556 284.912C346.556 284.789 346.531 284.698 346.48 284.64C346.436 284.582 346.367 284.55 346.273 284.542L344.641 284.314C344.133 284.241 343.723 284.074 343.411 283.813C343.106 283.552 342.954 283.117 342.954 282.507V281.365C342.954 280.748 343.153 280.276 343.552 279.95C343.951 279.616 344.503 279.449 345.207 279.449H348.254C348.392 279.449 348.49 279.482 348.548 279.547C348.613 279.605 348.646 279.703 348.646 279.841V281.136C348.646 281.274 348.613 281.375 348.548 281.441C348.49 281.499 348.392 281.528 348.254 281.528H345.718C345.624 281.528 345.551 281.56 345.5 281.626C345.45 281.684 345.424 281.76 345.424 281.854C345.424 281.949 345.45 282.028 345.5 282.094C345.551 282.159 345.624 282.195 345.718 282.202L347.34 282.42C347.848 282.493 348.257 282.66 348.569 282.921C348.881 283.182 349.037 283.617 349.037 284.227V285.369C349.037 285.986 348.834 286.461 348.428 286.795C348.029 287.122 347.481 287.285 346.785 287.285ZM350.446 287.285C350.308 287.285 350.206 287.256 350.141 287.198C350.083 287.132 350.054 287.031 350.054 286.893V285.598C350.054 285.46 350.083 285.362 350.141 285.304C350.206 285.239 350.308 285.206 350.446 285.206H351.523V281.55H350.446C350.308 281.55 350.206 281.52 350.141 281.462C350.083 281.397 350.054 281.296 350.054 281.158V279.841C350.054 279.703 350.083 279.605 350.141 279.547C350.206 279.482 350.308 279.449 350.446 279.449H355.082C355.219 279.449 355.317 279.482 355.375 279.547C355.441 279.605 355.473 279.703 355.473 279.841V281.158C355.473 281.296 355.441 281.397 355.375 281.462C355.317 281.52 355.219 281.55 355.082 281.55H354.026V285.206H355.082C355.219 285.206 355.317 285.239 355.375 285.304C355.441 285.362 355.473 285.46 355.473 285.598V286.893C355.473 287.031 355.441 287.132 355.375 287.198C355.317 287.256 355.219 287.285 355.082 287.285H350.446Z" fill="#835DBB"/>
<rect x="292.148" y="293.308" width="60.4602" height="65.297" rx="9.67363" fill="#FFE162"/>
<rect x="299.404" y="300.563" width="45.9497" height="50.7866" rx="8.46442" fill="#FFE162"/>
<g clip-path="url(#clip3_22_3)">
<path d="M320.961 312.648C320.324 312.725 319.06 312.99 318.47 313.168C315.718 314.006 313.215 315.801 311.532 318.151L311.166 318.664L311.591 318.706C312.146 318.765 312.772 319.06 313.15 319.444C313.309 319.603 313.729 320.158 314.083 320.684C314.443 321.209 314.744 321.64 314.762 321.64C314.78 321.64 314.933 321.422 315.104 321.156C316.309 319.284 318.363 317.885 320.583 317.425C322.561 317.017 324.752 317.336 326.511 318.292C327.964 319.084 329.251 320.371 330.042 321.823C330.491 322.65 330.904 323.907 331.016 324.787L331.058 325.071H330.627C330.06 325.071 329.806 325.153 329.593 325.395C329.381 325.632 329.316 325.874 329.399 326.157C329.481 326.47 332.746 331.199 332.971 331.335C333.231 331.495 333.644 331.483 333.892 331.317C334.093 331.176 337.163 326.801 337.381 326.34C337.523 326.033 337.523 325.815 337.369 325.543C337.175 325.201 336.962 325.106 336.301 325.082L335.728 325.059L335.699 324.84C335.681 324.722 335.651 324.48 335.634 324.303C335.327 321.499 333.957 318.67 331.878 316.568C329.924 314.59 327.574 313.345 324.805 312.807C324.097 312.672 323.831 312.654 322.585 312.642C321.806 312.63 321.074 312.636 320.961 312.648Z" fill="#835DBB"/>
<path d="M311.072 320.501C310.948 320.542 310.788 320.636 310.717 320.713C310.511 320.926 307.44 325.413 307.346 325.637C307.234 325.909 307.24 326.11 307.387 326.37C307.582 326.712 307.795 326.806 308.456 326.83L309.029 326.854L309.058 327.072C309.076 327.19 309.106 327.432 309.123 327.609C309.43 330.414 310.8 333.242 312.878 335.344C314.833 337.322 317.153 338.556 319.952 339.105C320.707 339.253 320.855 339.265 322.378 339.265C323.902 339.265 324.049 339.253 324.805 339.105C328.283 338.42 331.223 336.555 333.225 333.762L333.591 333.248L333.166 333.207C332.611 333.148 331.985 332.853 331.607 332.469C331.447 332.309 331.034 331.754 330.674 331.229C330.32 330.703 330.013 330.272 329.995 330.272C329.977 330.272 329.824 330.491 329.653 330.756C328.448 332.628 326.393 334.027 324.173 334.488C322.195 334.895 320.005 334.577 318.245 333.62C316.793 332.829 315.506 331.542 314.715 330.089C314.266 329.263 313.853 328.005 313.74 327.119L313.699 326.842H314.13C314.697 326.842 314.951 326.759 315.163 326.517C315.376 326.281 315.441 326.039 315.358 325.756C315.287 325.496 312.028 320.731 311.833 320.607C311.603 320.453 311.314 320.412 311.072 320.501Z" fill="#835DBB"/>
<path d="M321.924 320.583C321.652 320.749 321.546 320.944 321.51 321.363C321.475 321.741 321.428 321.823 321.233 321.823C321.02 321.823 320.371 322.195 320.129 322.455C319.633 322.992 319.414 323.848 319.527 324.77C319.603 325.354 319.81 325.815 320.152 326.157C320.684 326.683 321.209 326.842 322.449 326.842C323.181 326.842 323.217 326.848 323.353 326.99C323.483 327.114 323.5 327.184 323.5 327.598C323.5 327.981 323.477 328.094 323.376 328.224C323.258 328.377 323.258 328.377 322.384 328.377C321.381 328.377 321.339 328.359 321.251 327.875C321.097 327.054 320.223 326.806 319.698 327.438C319.544 327.621 319.533 327.663 319.556 328.076C319.58 328.613 319.769 329.068 320.129 329.458C320.371 329.717 321.02 330.089 321.233 330.089C321.428 330.089 321.475 330.172 321.51 330.55C321.528 330.751 321.587 330.987 321.64 331.069C321.965 331.571 322.792 331.571 323.116 331.069C323.17 330.987 323.229 330.751 323.246 330.55C323.282 330.172 323.329 330.089 323.524 330.089C323.736 330.089 324.386 329.717 324.628 329.458C325.124 328.92 325.342 328.064 325.23 327.143C325.153 326.559 324.947 326.098 324.604 325.756C324.073 325.23 323.547 325.071 322.308 325.071C321.575 325.071 321.54 325.065 321.404 324.923C321.274 324.799 321.257 324.728 321.257 324.315C321.257 323.931 321.28 323.819 321.381 323.689C321.499 323.536 321.499 323.536 322.372 323.536C323.376 323.536 323.418 323.553 323.506 324.037C323.66 324.858 324.533 325.106 325.059 324.474C325.212 324.291 325.224 324.25 325.201 323.837C325.177 323.299 324.988 322.845 324.628 322.455C324.386 322.195 323.736 321.823 323.524 321.823C323.329 321.823 323.282 321.741 323.246 321.363C323.229 321.162 323.17 320.926 323.116 320.843C322.969 320.613 322.68 320.465 322.378 320.465C322.219 320.465 322.036 320.512 321.924 320.583Z" fill="#835DBB"/>
</g>
<rect x="299.404" y="300.563" width="45.9497" height="50.7866" rx="8.46442" stroke="#835DBB" stroke-width="2.41841" stroke-miterlimit="16" stroke-linejoin="round" stroke-dasharray="7.86 7.86"/>
<path d="M246.134 376.52H244.489C244.35 376.52 244.247 376.491 244.18 376.432C244.121 376.365 244.092 376.262 244.092 376.123V368.969C244.092 368.829 244.121 368.73 244.18 368.671C244.247 368.605 244.35 368.572 244.489 368.572H246.267C246.385 368.572 246.48 368.597 246.554 368.649C246.635 368.7 246.708 368.785 246.775 368.903L247.768 370.702C247.805 370.768 247.834 370.816 247.856 370.846C247.886 370.875 247.923 370.89 247.967 370.89H248.066C248.11 370.89 248.144 370.875 248.166 370.846C248.195 370.816 248.228 370.768 248.265 370.702L249.247 368.903C249.314 368.785 249.384 368.7 249.457 368.649C249.538 368.597 249.638 368.572 249.755 368.572H251.544C251.683 368.572 251.783 368.605 251.842 368.671C251.908 368.73 251.941 368.829 251.941 368.969V376.123C251.941 376.262 251.908 376.365 251.842 376.432C251.783 376.491 251.683 376.52 251.544 376.52H249.844C249.704 376.52 249.601 376.491 249.534 376.432C249.476 376.365 249.446 376.262 249.446 376.123V372.237L248.795 373.44C248.729 373.565 248.648 373.657 248.552 373.716C248.464 373.767 248.35 373.793 248.21 373.793H247.768C247.628 373.793 247.511 373.767 247.415 373.716C247.327 373.657 247.249 373.565 247.183 373.44L246.532 372.237V376.123C246.532 376.262 246.499 376.365 246.432 376.432C246.374 376.491 246.274 376.52 246.134 376.52ZM258.98 376.52H253.858C253.718 376.52 253.615 376.491 253.549 376.432C253.49 376.365 253.46 376.262 253.46 376.123V368.969C253.46 368.829 253.49 368.73 253.549 368.671C253.615 368.605 253.718 368.572 253.858 368.572H258.98C259.12 368.572 259.219 368.605 259.278 368.671C259.344 368.73 259.378 368.829 259.378 368.969V370.261C259.378 370.4 259.344 370.504 259.278 370.57C259.219 370.629 259.12 370.658 258.98 370.658H255.933V371.508H258.086C258.226 371.508 258.325 371.541 258.384 371.607C258.45 371.666 258.483 371.766 258.483 371.906V373.087C258.483 373.227 258.45 373.33 258.384 373.396C258.325 373.455 258.226 373.484 258.086 373.484H255.933V374.434H258.98C259.12 374.434 259.219 374.467 259.278 374.533C259.344 374.592 259.378 374.691 259.378 374.831V376.123C259.378 376.262 259.344 376.365 259.278 376.432C259.219 376.491 259.12 376.52 258.98 376.52ZM262.737 376.52H261.081C260.941 376.52 260.838 376.491 260.772 376.432C260.713 376.365 260.684 376.262 260.684 376.123V368.969C260.684 368.829 260.713 368.73 260.772 368.671C260.838 368.605 260.941 368.572 261.081 368.572H262.229C262.369 368.572 262.487 368.594 262.582 368.638C262.685 368.682 262.785 368.759 262.88 368.87L265.022 371.32V368.969C265.022 368.829 265.051 368.73 265.11 368.671C265.177 368.605 265.28 368.572 265.419 368.572H267.075C267.215 368.572 267.315 368.605 267.373 368.671C267.44 368.73 267.473 368.829 267.473 368.969V376.123C267.473 376.262 267.44 376.365 267.373 376.432C267.315 376.491 267.215 376.52 267.075 376.52H265.419C265.28 376.52 265.177 376.491 265.11 376.432C265.051 376.365 265.022 376.262 265.022 376.123V374.765L263.134 372.48V376.123C263.134 376.262 263.101 376.365 263.035 376.432C262.976 376.491 262.877 376.52 262.737 376.52ZM271.877 370.89L271.358 372.568H273.091L272.572 370.89C272.543 370.824 272.51 370.776 272.473 370.746C272.443 370.717 272.407 370.702 272.362 370.702H272.086C272.042 370.702 272.002 370.717 271.965 370.746C271.936 370.776 271.906 370.824 271.877 370.89ZM271.247 376.123C271.247 376.262 271.214 376.365 271.148 376.432C271.089 376.491 270.99 376.52 270.85 376.52H269.227C269.087 376.52 268.984 376.491 268.918 376.432C268.859 376.365 268.83 376.262 268.83 376.123V373.208C268.83 372.987 268.863 372.733 268.929 372.446C269.003 372.159 269.113 371.825 269.26 371.442L270.221 368.936C270.265 368.811 270.331 368.719 270.419 368.66C270.515 368.601 270.637 368.572 270.784 368.572H273.753C273.893 368.572 274.007 368.601 274.096 368.66C274.191 368.719 274.261 368.811 274.305 368.936L275.266 371.442C275.413 371.825 275.52 372.159 275.586 372.446C275.66 372.733 275.696 372.987 275.696 373.208V376.123C275.696 376.262 275.663 376.365 275.597 376.432C275.538 376.491 275.439 376.52 275.299 376.52H273.632C273.485 376.52 273.374 376.491 273.301 376.432C273.235 376.365 273.201 376.262 273.201 376.123V374.577H271.247V376.123ZM281.696 376.52H277.457C277.317 376.52 277.214 376.491 277.148 376.432C277.089 376.365 277.059 376.262 277.059 376.123V368.969C277.059 368.829 277.089 368.73 277.148 368.671C277.214 368.605 277.317 368.572 277.457 368.572H280.978C281.7 368.572 282.233 368.711 282.579 368.991C282.925 369.263 283.098 369.687 283.098 370.261V370.791C283.098 371.1 283.043 371.354 282.932 371.552C282.829 371.744 282.667 371.887 282.447 371.983C282.918 372.027 283.267 372.189 283.495 372.469C283.723 372.748 283.838 373.157 283.838 373.694V374.71C283.838 375.328 283.661 375.784 283.308 376.078C282.962 376.373 282.425 376.52 281.696 376.52ZM279.543 370.448V371.641H280.482C280.621 371.641 280.724 371.604 280.791 371.53C280.864 371.457 280.901 371.346 280.901 371.199V370.89C280.901 370.743 280.864 370.632 280.791 370.559C280.724 370.485 280.621 370.448 280.482 370.448H279.543ZM279.543 373.341V374.643H280.978C281.118 374.643 281.221 374.606 281.287 374.533C281.361 374.459 281.398 374.349 281.398 374.202V373.771C281.398 373.624 281.361 373.517 281.287 373.451C281.221 373.377 281.118 373.341 280.978 373.341H279.543ZM291.826 374.434C291.826 374.772 291.774 375.081 291.671 375.361C291.576 375.633 291.399 375.869 291.141 376.067C290.891 376.259 290.545 376.41 290.104 376.52C289.662 376.63 289.099 376.686 288.415 376.686C287.73 376.686 287.167 376.63 286.726 376.52C286.284 376.41 285.934 376.259 285.677 376.067C285.427 375.869 285.25 375.633 285.147 375.361C285.051 375.081 285.003 374.772 285.003 374.434V368.969C285.003 368.829 285.033 368.73 285.092 368.671C285.158 368.605 285.261 368.572 285.401 368.572H287.134C287.274 368.572 287.373 368.605 287.432 368.671C287.498 368.73 287.531 368.829 287.531 368.969V374.003C287.531 374.15 287.587 374.275 287.697 374.378C287.807 374.474 288.054 374.522 288.437 374.522C288.827 374.522 289.077 374.474 289.187 374.378C289.298 374.275 289.353 374.15 289.353 374.003V368.969C289.353 368.829 289.382 368.73 289.441 368.671C289.507 368.605 289.611 368.572 289.75 368.572H291.428C291.568 368.572 291.668 368.605 291.726 368.671C291.793 368.73 291.826 368.829 291.826 368.969V374.434ZM295.348 376.52H293.692C293.553 376.52 293.45 376.491 293.383 376.432C293.324 376.365 293.295 376.262 293.295 376.123V368.969C293.295 368.829 293.324 368.73 293.383 368.671C293.45 368.605 293.553 368.572 293.692 368.572H294.841C294.98 368.572 295.098 368.594 295.194 368.638C295.297 368.682 295.396 368.759 295.492 368.87L297.634 371.32V368.969C297.634 368.829 297.663 368.73 297.722 368.671C297.788 368.605 297.891 368.572 298.031 368.572H299.687C299.827 368.572 299.926 368.605 299.985 368.671C300.051 368.73 300.084 368.829 300.084 368.969V376.123C300.084 376.262 300.051 376.365 299.985 376.432C299.926 376.491 299.827 376.52 299.687 376.52H298.031C297.891 376.52 297.788 376.491 297.722 376.432C297.663 376.365 297.634 376.262 297.634 376.123V374.765L295.746 372.48V376.123C295.746 376.262 295.713 376.365 295.646 376.432C295.588 376.491 295.488 376.52 295.348 376.52ZM307.679 376.52H304.201C303.281 376.52 302.597 376.336 302.148 375.968C301.706 375.6 301.486 375.033 301.486 374.268V370.824C301.486 370.058 301.706 369.492 302.148 369.124C302.597 368.756 303.281 368.572 304.201 368.572H306.961C307.101 368.572 307.2 368.605 307.259 368.671C307.325 368.73 307.358 368.829 307.358 368.969V370.305C307.358 370.445 307.325 370.548 307.259 370.614C307.2 370.673 307.101 370.702 306.961 370.702H304.665C304.437 370.702 304.267 370.75 304.157 370.846C304.047 370.934 303.991 371.07 303.991 371.254V373.893C303.991 374.077 304.032 374.213 304.113 374.301C304.201 374.389 304.33 374.434 304.499 374.434H305.57V372.711C305.57 372.572 305.6 372.472 305.658 372.413C305.725 372.347 305.828 372.314 305.968 372.314H307.679C307.818 372.314 307.918 372.347 307.977 372.413C308.043 372.472 308.076 372.572 308.076 372.711V376.123C308.076 376.262 308.043 376.365 307.977 376.432C307.918 376.491 307.818 376.52 307.679 376.52Z" fill="#835DBB"/>
<rect x="245.665" y="382.586" width="61.3301" height="66.2365" rx="9.81281" fill="#FFE162"/>
<rect x="253.025" y="389.946" width="46.6108" height="51.5172" rx="8.58621" fill="#FFE162"/>
<g clip-path="url(#clip4_22_3)">
<path d="M275.6 400.432C273.875 400.744 272.491 401.995 271.946 403.726C271.749 404.367 271.749 405.475 271.952 406.122C272.335 407.38 273.18 408.374 274.318 408.931C274.941 409.236 275.384 409.35 276.091 409.398C277.372 409.476 278.582 409.009 279.499 408.08C280.086 407.481 280.469 406.829 280.685 406.038C280.828 405.523 280.822 404.307 280.685 403.786C280.259 402.247 279.079 401.025 277.558 400.552C277.085 400.408 276.067 400.342 275.6 400.432Z" fill="#835DBB"/>
<path d="M265.699 409.332C265.136 409.452 264.885 409.59 264.729 409.871C264.49 410.29 264.567 410.632 265.023 411.147C265.316 411.482 265.55 411.896 265.777 412.471C266.095 413.273 266.095 413.249 265.634 413.68C264.915 414.351 264.25 415.25 263.789 416.166L263.573 416.603H262.639C261.549 416.603 261.327 416.675 261.118 417.082C261.004 417.31 260.998 417.43 260.998 420.197C260.998 422.964 261.004 423.083 261.118 423.311C261.327 423.718 261.549 423.79 262.639 423.79H263.561L263.867 424.365C264.657 425.874 265.867 427.138 267.352 428.013C267.658 428.192 268.023 428.384 268.167 428.438C268.305 428.492 268.425 428.564 268.425 428.6C268.425 428.63 268.371 428.983 268.299 429.384C268.161 430.175 268.173 430.408 268.359 430.672C268.61 431.025 268.694 431.037 270.874 431.037C272.749 431.037 272.875 431.031 273.096 430.917C273.402 430.762 273.515 430.534 273.635 429.839L273.731 429.27H275.402H277.073L277.169 429.839C277.289 430.534 277.402 430.762 277.708 430.917C277.929 431.031 278.055 431.037 279.924 431.037C281.799 431.037 281.918 431.031 282.146 430.917C282.314 430.828 282.421 430.714 282.511 430.528L282.643 430.259L282.505 429.408C282.415 428.857 282.391 428.546 282.427 428.534C282.709 428.444 283.595 427.959 284.086 427.635C284.871 427.12 285.991 426.006 286.506 425.234C288.405 422.371 288.578 418.831 286.955 415.92C286.812 415.663 286.692 415.429 286.692 415.393C286.692 415.363 286.913 415.112 287.189 414.842C287.854 414.177 288.321 413.938 288.968 413.938C289.674 413.938 289.998 414.201 289.782 414.609C289.734 414.704 289.597 414.86 289.483 414.95C289.213 415.154 289.087 415.393 289.087 415.705C289.087 416.322 289.632 416.729 290.225 416.549C290.351 416.513 290.591 416.358 290.758 416.208C291.956 415.13 291.956 413.561 290.752 412.68C289.399 411.68 287.416 412.045 285.877 413.579L285.506 413.956L285.302 413.746C284.961 413.387 284.068 412.722 283.47 412.387C282.463 411.818 281.254 411.422 280.044 411.273C279.72 411.231 277.917 411.213 275.115 411.219L270.694 411.225L270.509 410.961C269.922 410.153 268.958 409.548 267.897 409.326C267.382 409.212 266.238 409.218 265.699 409.332ZM280.343 414.926C280.613 415.064 280.822 415.405 280.822 415.705C280.822 416.004 280.613 416.346 280.343 416.483C280.116 416.597 279.996 416.603 276.3 416.603C272.605 416.603 272.485 416.597 272.258 416.483C271.988 416.346 271.778 416.004 271.778 415.705C271.778 415.417 271.988 415.064 272.246 414.932C272.461 414.818 272.605 414.812 276.288 414.806C280.002 414.806 280.116 414.812 280.343 414.926ZM269.503 416.723C269.772 416.861 269.982 417.202 269.982 417.501C269.982 417.957 269.539 418.4 269.077 418.4C268.64 418.4 268.185 417.945 268.185 417.501C268.185 417.214 268.395 416.861 268.652 416.729C268.94 416.573 269.209 416.573 269.503 416.723Z" fill="#835DBB"/>
</g>
<rect x="253.025" y="389.946" width="46.6108" height="51.5172" rx="8.58621" stroke="#835DBB" stroke-width="2.4532" stroke-miterlimit="16" stroke-linejoin="round" stroke-dasharray="7.97 7.97"/>
<path d="M210.263 260.303H208.664C208.539 260.303 208.447 260.276 208.387 260.224C208.335 260.164 208.308 260.072 208.308 259.947V255.101H206.857C206.732 255.101 206.64 255.075 206.581 255.022C206.528 254.963 206.502 254.871 206.502 254.746V253.551C206.502 253.426 206.528 253.337 206.581 253.285C206.64 253.225 206.732 253.196 206.857 253.196H212.069C212.194 253.196 212.283 253.225 212.336 253.285C212.395 253.337 212.424 253.426 212.424 253.551V254.746C212.424 254.871 212.395 254.963 212.336 255.022C212.283 255.075 212.194 255.101 212.069 255.101H210.618V259.947C210.618 260.072 210.588 260.164 210.529 260.224C210.477 260.276 210.388 260.303 210.263 260.303ZM215.615 254.973V256.236H216.355C216.526 256.236 216.642 256.193 216.701 256.108C216.76 256.016 216.79 255.904 216.79 255.772V255.436C216.79 255.305 216.76 255.196 216.701 255.111C216.642 255.019 216.526 254.973 216.355 254.973H215.615ZM215.26 260.303H213.74C213.615 260.303 213.522 260.276 213.463 260.224C213.411 260.164 213.384 260.072 213.384 259.947V253.551C213.384 253.426 213.411 253.337 213.463 253.285C213.522 253.225 213.615 253.196 213.74 253.196H217.026C217.763 253.196 218.27 253.35 218.547 253.66C218.829 253.962 218.971 254.357 218.971 254.844V255.298C218.971 255.575 218.928 255.812 218.843 256.009C218.764 256.2 218.622 256.338 218.418 256.423C218.774 256.463 219.06 256.608 219.277 256.858C219.501 257.108 219.613 257.44 219.613 257.855V259.947C219.613 260.072 219.583 260.164 219.524 260.224C219.471 260.276 219.382 260.303 219.257 260.303H217.727C217.602 260.303 217.51 260.276 217.451 260.224C217.398 260.164 217.372 260.072 217.372 259.947V258.437C217.372 258.292 217.342 258.187 217.283 258.121C217.23 258.049 217.135 258.013 216.997 258.013H215.615V259.947C215.615 260.072 215.585 260.164 215.526 260.224C215.474 260.276 215.385 260.303 215.26 260.303ZM223.296 255.269L222.832 256.769H224.382L223.918 255.269C223.891 255.209 223.862 255.167 223.829 255.14C223.802 255.114 223.77 255.101 223.73 255.101H223.483C223.444 255.101 223.408 255.114 223.375 255.14C223.348 255.167 223.322 255.209 223.296 255.269ZM222.733 259.947C222.733 260.072 222.704 260.164 222.644 260.224C222.592 260.276 222.503 260.303 222.378 260.303H220.927C220.802 260.303 220.71 260.276 220.651 260.224C220.598 260.164 220.572 260.072 220.572 259.947V257.341C220.572 257.144 220.601 256.917 220.66 256.66C220.726 256.404 220.825 256.104 220.957 255.762L221.815 253.522C221.855 253.41 221.914 253.327 221.993 253.275C222.078 253.222 222.187 253.196 222.319 253.196H224.974C225.099 253.196 225.201 253.222 225.28 253.275C225.365 253.327 225.428 253.41 225.467 253.522L226.326 255.762C226.458 256.104 226.553 256.404 226.612 256.66C226.678 256.917 226.711 257.144 226.711 257.341V259.947C226.711 260.072 226.681 260.164 226.622 260.224C226.57 260.276 226.481 260.303 226.356 260.303H224.865C224.734 260.303 224.635 260.276 224.569 260.224C224.51 260.164 224.48 260.072 224.48 259.947V258.565H222.733V259.947ZM229.766 260.303H228.285C228.16 260.303 228.068 260.276 228.009 260.224C227.956 260.164 227.93 260.072 227.93 259.947V253.551C227.93 253.426 227.956 253.337 228.009 253.285C228.068 253.225 228.16 253.196 228.285 253.196H229.312C229.437 253.196 229.542 253.216 229.627 253.255C229.72 253.295 229.808 253.364 229.894 253.462L231.809 255.654V253.551C231.809 253.426 231.835 253.337 231.888 253.285C231.947 253.225 232.039 253.196 232.164 253.196H233.645C233.77 253.196 233.859 253.225 233.911 253.285C233.97 253.337 234 253.426 234 253.551V259.947C234 260.072 233.97 260.164 233.911 260.224C233.859 260.276 233.77 260.303 233.645 260.303H232.164C232.039 260.303 231.947 260.276 231.888 260.224C231.835 260.164 231.809 260.072 231.809 259.947V258.733L230.121 256.69V259.947C230.121 260.072 230.091 260.164 230.032 260.224C229.979 260.276 229.891 260.303 229.766 260.303ZM238.658 260.303H235.539C235.414 260.303 235.322 260.276 235.263 260.224C235.21 260.164 235.184 260.072 235.184 259.947V258.792C235.184 258.667 235.21 258.579 235.263 258.526C235.322 258.467 235.414 258.437 235.539 258.437H238.194C238.28 258.437 238.342 258.411 238.382 258.358C238.428 258.299 238.451 258.23 238.451 258.151C238.451 258.039 238.428 257.957 238.382 257.904C238.342 257.851 238.28 257.822 238.194 257.815L236.714 257.608C236.253 257.542 235.881 257.391 235.598 257.154C235.322 256.917 235.184 256.522 235.184 255.969V254.933C235.184 254.374 235.365 253.946 235.727 253.65C236.089 253.347 236.589 253.196 237.227 253.196H239.991C240.116 253.196 240.205 253.225 240.257 253.285C240.316 253.337 240.346 253.426 240.346 253.551V254.726C240.346 254.851 240.316 254.943 240.257 255.002C240.205 255.055 240.116 255.081 239.991 255.081H237.691C237.605 255.081 237.54 255.111 237.493 255.17C237.447 255.223 237.424 255.292 237.424 255.377C237.424 255.463 237.447 255.535 237.493 255.594C237.54 255.654 237.605 255.686 237.691 255.693L239.162 255.89C239.622 255.956 239.994 256.108 240.277 256.345C240.56 256.581 240.701 256.976 240.701 257.529V258.565C240.701 259.125 240.517 259.556 240.149 259.858C239.787 260.155 239.29 260.303 238.658 260.303ZM243.666 260.303H242.136C242.011 260.303 241.919 260.276 241.86 260.224C241.807 260.164 241.781 260.072 241.781 259.947V253.551C241.781 253.426 241.807 253.337 241.86 253.285C241.919 253.225 242.011 253.196 242.136 253.196H246.539C246.664 253.196 246.752 253.225 246.805 253.285C246.864 253.337 246.894 253.426 246.894 253.551V254.726C246.894 254.851 246.864 254.943 246.805 255.002C246.752 255.055 246.664 255.081 246.539 255.081H244.022V256.108H245.739C245.864 256.108 245.953 256.137 246.006 256.196C246.065 256.249 246.094 256.338 246.094 256.463V257.647C246.094 257.772 246.065 257.865 246.006 257.924C245.953 257.976 245.864 258.003 245.739 258.003H244.022V259.947C244.022 260.072 243.992 260.164 243.933 260.224C243.88 260.276 243.791 260.303 243.666 260.303ZM252.818 260.303H248.238C248.113 260.303 248.021 260.276 247.962 260.224C247.909 260.164 247.883 260.072 247.883 259.947V253.551C247.883 253.426 247.909 253.337 247.962 253.285C248.021 253.225 248.113 253.196 248.238 253.196H252.818C252.943 253.196 253.032 253.225 253.084 253.285C253.144 253.337 253.173 253.426 253.173 253.551V254.706C253.173 254.831 253.144 254.923 253.084 254.982C253.032 255.035 252.943 255.061 252.818 255.061H250.094V255.821H252.018C252.143 255.821 252.232 255.851 252.285 255.91C252.344 255.963 252.374 256.052 252.374 256.177V257.233C252.374 257.358 252.344 257.45 252.285 257.509C252.232 257.562 252.143 257.588 252.018 257.588H250.094V258.437H252.818C252.943 258.437 253.032 258.467 253.084 258.526C253.144 258.579 253.173 258.667 253.173 258.792V259.947C253.173 260.072 253.144 260.164 253.084 260.224C253.032 260.276 252.943 260.303 252.818 260.303ZM256.572 254.973V256.236H257.312C257.483 256.236 257.598 256.193 257.657 256.108C257.717 256.016 257.746 255.904 257.746 255.772V255.436C257.746 255.305 257.717 255.196 257.657 255.111C257.598 255.019 257.483 254.973 257.312 254.973H256.572ZM256.216 260.303H254.696C254.571 260.303 254.479 260.276 254.42 260.224C254.367 260.164 254.341 260.072 254.341 259.947V253.551C254.341 253.426 254.367 253.337 254.42 253.285C254.479 253.225 254.571 253.196 254.696 253.196H257.983C258.72 253.196 259.227 253.35 259.503 253.66C259.786 253.962 259.927 254.357 259.927 254.844V255.298C259.927 255.575 259.885 255.812 259.799 256.009C259.72 256.2 259.579 256.338 259.375 256.423C259.73 256.463 260.016 256.608 260.233 256.858C260.457 257.108 260.569 257.44 260.569 257.855V259.947C260.569 260.072 260.539 260.164 260.48 260.224C260.428 260.276 260.339 260.303 260.214 260.303H258.684C258.559 260.303 258.467 260.276 258.407 260.224C258.355 260.164 258.328 260.072 258.328 259.947V258.437C258.328 258.292 258.299 258.187 258.24 258.121C258.187 258.049 258.092 258.013 257.953 258.013H256.572V259.947C256.572 260.072 256.542 260.164 256.483 260.224C256.43 260.276 256.341 260.303 256.216 260.303ZM218.124 267.269L217.661 268.769H219.21L218.746 267.269C218.72 267.209 218.69 267.167 218.657 267.14C218.631 267.114 218.598 267.101 218.559 267.101H218.312C218.272 267.101 218.236 267.114 218.203 267.14C218.177 267.167 218.151 267.209 218.124 267.269ZM217.562 271.947C217.562 272.072 217.532 272.164 217.473 272.224C217.42 272.276 217.332 272.303 217.206 272.303H215.756C215.631 272.303 215.538 272.276 215.479 272.224C215.427 272.164 215.4 272.072 215.4 271.947V269.341C215.4 269.144 215.43 268.917 215.489 268.66C215.555 268.404 215.654 268.104 215.785 267.762L216.644 265.522C216.683 265.41 216.743 265.327 216.822 265.275C216.907 265.222 217.016 265.196 217.147 265.196H219.802C219.927 265.196 220.029 265.222 220.108 265.275C220.194 265.327 220.256 265.41 220.296 265.522L221.155 267.762C221.286 268.104 221.382 268.404 221.441 268.66C221.507 268.917 221.54 269.144 221.54 269.341V271.947C221.54 272.072 221.51 272.164 221.451 272.224C221.398 272.276 221.309 272.303 221.184 272.303H219.694C219.562 272.303 219.464 272.276 219.398 272.224C219.338 272.164 219.309 272.072 219.309 271.947V270.565H217.562V271.947ZM224.594 272.303H223.114C222.989 272.303 222.896 272.276 222.837 272.224C222.785 272.164 222.758 272.072 222.758 271.947V265.551C222.758 265.426 222.785 265.337 222.837 265.285C222.896 265.225 222.989 265.196 223.114 265.196H224.14C224.265 265.196 224.37 265.216 224.456 265.255C224.548 265.295 224.637 265.364 224.723 265.462L226.637 267.654V265.551C226.637 265.426 226.664 265.337 226.716 265.285C226.776 265.225 226.868 265.196 226.993 265.196H228.473C228.598 265.196 228.687 265.225 228.74 265.285C228.799 265.337 228.829 265.426 228.829 265.551V271.947C228.829 272.072 228.799 272.164 228.74 272.224C228.687 272.276 228.598 272.303 228.473 272.303H226.993C226.868 272.303 226.776 272.276 226.716 272.224C226.664 272.164 226.637 272.072 226.637 271.947V270.733L224.95 268.69V271.947C224.95 272.072 224.92 272.164 224.861 272.224C224.808 272.276 224.719 272.303 224.594 272.303ZM233.546 272.303H231.947C231.822 272.303 231.73 272.276 231.671 272.224C231.618 272.164 231.592 272.072 231.592 271.947V267.101H230.141C230.016 267.101 229.924 267.075 229.864 267.022C229.812 266.963 229.785 266.871 229.785 266.746V265.551C229.785 265.426 229.812 265.337 229.864 265.285C229.924 265.225 230.016 265.196 230.141 265.196H235.352C235.477 265.196 235.566 265.225 235.619 265.285C235.678 265.337 235.708 265.426 235.708 265.551V266.746C235.708 266.871 235.678 266.963 235.619 267.022C235.566 267.075 235.477 267.101 235.352 267.101H233.901V271.947C233.901 272.072 233.872 272.164 233.812 272.224C233.76 272.276 233.671 272.303 233.546 272.303ZM238.849 267.269L238.385 268.769H239.934L239.47 267.269C239.444 267.209 239.414 267.167 239.382 267.14C239.355 267.114 239.322 267.101 239.283 267.101H239.036C238.997 267.101 238.96 267.114 238.927 267.14C238.901 267.167 238.875 267.209 238.849 267.269ZM238.286 271.947C238.286 272.072 238.256 272.164 238.197 272.224C238.144 272.276 238.056 272.303 237.931 272.303H236.48C236.355 272.303 236.262 272.276 236.203 272.224C236.151 272.164 236.124 272.072 236.124 271.947V269.341C236.124 269.144 236.154 268.917 236.213 268.66C236.279 268.404 236.378 268.104 236.509 267.762L237.368 265.522C237.407 265.41 237.467 265.327 237.546 265.275C237.631 265.222 237.74 265.196 237.871 265.196H240.526C240.652 265.196 240.754 265.222 240.832 265.275C240.918 265.327 240.981 265.41 241.02 265.522L241.879 267.762C242.01 268.104 242.106 268.404 242.165 268.66C242.231 268.917 242.264 269.144 242.264 269.341V271.947C242.264 272.072 242.234 272.164 242.175 272.224C242.122 272.276 242.033 272.303 241.908 272.303H240.418C240.286 272.303 240.188 272.276 240.122 272.224C240.063 272.164 240.033 272.072 240.033 271.947V270.565H238.286V271.947ZM245.713 266.973V268.236H246.453C246.624 268.236 246.74 268.193 246.799 268.108C246.858 268.016 246.888 267.904 246.888 267.772V267.436C246.888 267.305 246.858 267.196 246.799 267.111C246.74 267.019 246.624 266.973 246.453 266.973H245.713ZM245.358 272.303H243.838C243.713 272.303 243.621 272.276 243.561 272.224C243.509 272.164 243.482 272.072 243.482 271.947V265.551C243.482 265.426 243.509 265.337 243.561 265.285C243.621 265.225 243.713 265.196 243.838 265.196H247.125C247.862 265.196 248.368 265.35 248.645 265.66C248.928 265.962 249.069 266.357 249.069 266.844V267.298C249.069 267.575 249.026 267.812 248.941 268.009C248.862 268.2 248.72 268.338 248.516 268.423C248.872 268.463 249.158 268.608 249.375 268.858C249.599 269.108 249.711 269.44 249.711 269.855V271.947C249.711 272.072 249.681 272.164 249.622 272.224C249.569 272.276 249.48 272.303 249.355 272.303H247.825C247.7 272.303 247.608 272.276 247.549 272.224C247.496 272.164 247.47 272.072 247.47 271.947V270.437C247.47 270.292 247.44 270.187 247.381 270.121C247.329 270.049 247.233 270.013 247.095 270.013H245.713V271.947C245.713 272.072 245.683 272.164 245.624 272.224C245.572 272.276 245.483 272.303 245.358 272.303ZM214.039 284.303H212.568C212.443 284.303 212.351 284.276 212.292 284.224C212.239 284.164 212.213 284.072 212.213 283.947V277.551C212.213 277.426 212.239 277.337 212.292 277.285C212.351 277.225 212.443 277.196 212.568 277.196H214.158C214.263 277.196 214.348 277.219 214.414 277.265C214.487 277.311 214.552 277.387 214.612 277.492L215.5 279.101C215.533 279.16 215.559 279.203 215.579 279.229C215.605 279.255 215.638 279.269 215.678 279.269H215.766C215.806 279.269 215.836 279.255 215.855 279.229C215.882 279.203 215.911 279.16 215.944 279.101L216.823 277.492C216.882 277.387 216.944 277.311 217.01 277.265C217.083 277.219 217.171 277.196 217.277 277.196H218.876C219.001 277.196 219.09 277.225 219.142 277.285C219.201 277.337 219.231 277.426 219.231 277.551V283.947C219.231 284.072 219.201 284.164 219.142 284.224C219.09 284.276 219.001 284.303 218.876 284.303H217.356C217.231 284.303 217.138 284.276 217.079 284.224C217.027 284.164 217 284.072 217 283.947V280.473L216.418 281.549C216.359 281.661 216.286 281.743 216.201 281.795C216.122 281.842 216.02 281.865 215.895 281.865H215.5C215.375 281.865 215.27 281.842 215.184 281.795C215.105 281.743 215.036 281.661 214.977 281.549L214.394 280.473V283.947C214.394 284.072 214.365 284.164 214.306 284.224C214.253 284.276 214.164 284.303 214.039 284.303ZM225.525 284.303H220.945C220.82 284.303 220.728 284.276 220.668 284.224C220.616 284.164 220.589 284.072 220.589 283.947V277.551C220.589 277.426 220.616 277.337 220.668 277.285C220.728 277.225 220.82 277.196 220.945 277.196H225.525C225.65 277.196 225.739 277.225 225.791 277.285C225.85 277.337 225.88 277.426 225.88 277.551V278.706C225.88 278.831 225.85 278.923 225.791 278.982C225.739 279.035 225.65 279.061 225.525 279.061H222.8V279.821H224.725C224.85 279.821 224.939 279.851 224.992 279.91C225.051 279.963 225.081 280.052 225.081 280.177V281.233C225.081 281.358 225.051 281.45 224.992 281.509C224.939 281.562 224.85 281.588 224.725 281.588H222.8V282.437H225.525C225.65 282.437 225.739 282.467 225.791 282.526C225.85 282.579 225.88 282.667 225.88 282.792V283.947C225.88 284.072 225.85 284.164 225.791 284.224C225.739 284.276 225.65 284.303 225.525 284.303ZM228.874 284.303H227.403C227.278 284.303 227.186 284.276 227.127 284.224C227.074 284.164 227.048 284.072 227.048 283.947V277.551C227.048 277.426 227.074 277.337 227.127 277.285C227.186 277.225 227.278 277.196 227.403 277.196H228.992C229.097 277.196 229.183 277.219 229.249 277.265C229.321 277.311 229.387 277.387 229.446 277.492L230.335 279.101C230.367 279.16 230.394 279.203 230.414 279.229C230.44 279.255 230.473 279.269 230.512 279.269H230.601C230.641 279.269 230.67 279.255 230.69 279.229C230.716 279.203 230.746 279.16 230.779 279.101L231.657 277.492C231.716 277.387 231.779 277.311 231.845 277.265C231.917 277.219 232.006 277.196 232.111 277.196H233.71C233.835 277.196 233.924 277.225 233.977 277.285C234.036 277.337 234.066 277.426 234.066 277.551V283.947C234.066 284.072 234.036 284.164 233.977 284.224C233.924 284.276 233.835 284.303 233.71 284.303H232.19C232.065 284.303 231.973 284.276 231.914 284.224C231.861 284.164 231.835 284.072 231.835 283.947V280.473L231.253 281.549C231.193 281.661 231.121 281.743 231.035 281.795C230.956 281.842 230.854 281.865 230.729 281.865H230.335C230.21 281.865 230.104 281.842 230.019 281.795C229.94 281.743 229.871 281.661 229.811 281.549L229.229 280.473V283.947C229.229 284.072 229.199 284.164 229.14 284.224C229.088 284.276 228.999 284.303 228.874 284.303ZM239.57 284.303H235.779C235.654 284.303 235.562 284.276 235.503 284.224C235.45 284.164 235.424 284.072 235.424 283.947V277.551C235.424 277.426 235.45 277.337 235.503 277.285C235.562 277.225 235.654 277.196 235.779 277.196H238.928C239.573 277.196 240.05 277.321 240.359 277.571C240.669 277.814 240.823 278.193 240.823 278.706V279.18C240.823 279.456 240.774 279.683 240.675 279.861C240.583 280.032 240.438 280.16 240.241 280.246C240.662 280.285 240.975 280.43 241.179 280.68C241.383 280.93 241.485 281.295 241.485 281.776V282.684C241.485 283.237 241.327 283.645 241.011 283.908C240.701 284.171 240.221 284.303 239.57 284.303ZM237.645 278.874V279.94H238.484C238.609 279.94 238.701 279.907 238.76 279.841C238.826 279.775 238.859 279.677 238.859 279.545V279.269C238.859 279.137 238.826 279.038 238.76 278.973C238.701 278.907 238.609 278.874 238.484 278.874H237.645ZM237.645 281.46V282.625H238.928C239.053 282.625 239.145 282.592 239.204 282.526C239.27 282.46 239.303 282.361 239.303 282.23V281.845C239.303 281.713 239.27 281.618 239.204 281.559C239.145 281.493 239.053 281.46 238.928 281.46H237.645ZM247.512 284.303H242.932C242.807 284.303 242.714 284.276 242.655 284.224C242.603 284.164 242.576 284.072 242.576 283.947V277.551C242.576 277.426 242.603 277.337 242.655 277.285C242.714 277.225 242.807 277.196 242.932 277.196H247.512C247.637 277.196 247.725 277.225 247.778 277.285C247.837 277.337 247.867 277.426 247.867 277.551V278.706C247.867 278.831 247.837 278.923 247.778 278.982C247.725 279.035 247.637 279.061 247.512 279.061H244.787V279.821H246.712C246.837 279.821 246.926 279.851 246.979 279.91C247.038 279.963 247.067 280.052 247.067 280.177V281.233C247.067 281.358 247.038 281.45 246.979 281.509C246.926 281.562 246.837 281.588 246.712 281.588H244.787V282.437H247.512C247.637 282.437 247.725 282.467 247.778 282.526C247.837 282.579 247.867 282.667 247.867 282.792V283.947C247.867 284.072 247.837 284.164 247.778 284.224C247.725 284.276 247.637 284.303 247.512 284.303ZM251.265 278.973V280.236H252.005C252.177 280.236 252.292 280.193 252.351 280.108C252.41 280.016 252.44 279.904 252.44 279.772V279.436C252.44 279.305 252.41 279.196 252.351 279.111C252.292 279.019 252.177 278.973 252.005 278.973H251.265ZM250.91 284.303H249.39C249.265 284.303 249.173 284.276 249.113 284.224C249.061 284.164 249.034 284.072 249.034 283.947V277.551C249.034 277.426 249.061 277.337 249.113 277.285C249.173 277.225 249.265 277.196 249.39 277.196H252.677C253.414 277.196 253.92 277.35 254.197 277.66C254.48 277.962 254.621 278.357 254.621 278.844V279.298C254.621 279.575 254.578 279.812 254.493 280.009C254.414 280.2 254.272 280.338 254.068 280.423C254.424 280.463 254.71 280.608 254.927 280.858C255.151 281.108 255.263 281.44 255.263 281.855V283.947C255.263 284.072 255.233 284.164 255.174 284.224C255.121 284.276 255.032 284.303 254.907 284.303H253.377C253.252 284.303 253.16 284.276 253.101 284.224C253.048 284.164 253.022 284.072 253.022 283.947V282.437C253.022 282.292 252.993 282.187 252.933 282.121C252.881 282.049 252.785 282.013 252.647 282.013H251.265V283.947C251.265 284.072 251.236 284.164 251.176 284.224C251.124 284.276 251.035 284.303 250.91 284.303Z" fill="#835DBB"/>
<rect x="206.214" y="289.044" width="54.7929" height="59.1477" rx="8.77373" fill="#FFE162"/>
<rect x="212.794" y="295.625" width="41.6324" height="45.9871" rx="7.67701" fill="#FFE162"/>
<path d="M224.218 307.651C221.856 309.14 219.923 310.377 219.923 310.393C219.923 310.43 226.081 314.318 226.097 314.291C226.103 314.281 226.247 314.066 226.413 313.815C227.468 312.23 229.026 311.041 230.842 310.441C231.629 310.179 232.116 310.082 232.93 310.018C235.854 309.804 238.698 311.078 240.476 313.413L240.599 313.574L240.577 312.637C240.556 311.817 240.54 311.641 240.417 311.239C240.224 310.596 240.053 310.232 239.699 309.702C238.816 308.374 237.439 307.533 235.827 307.335C235.56 307.303 233.991 307.282 231.961 307.282H228.545L228.534 306.114L228.518 304.947L224.218 307.651Z" fill="#835DBB"/>
<path d="M233.229 313.191C232.677 313.289 232.159 313.599 231.827 314.033C231.638 314.282 231.542 314.462 231.446 314.757C231.389 314.946 231.377 315.041 231.377 315.393C231.377 315.848 231.419 316.022 231.608 316.392C232.249 317.645 233.95 317.99 235.035 317.086C235.864 316.395 236.083 315.283 235.577 314.329C235.484 314.151 235.382 314.024 235.181 313.826C234.879 313.528 234.594 313.359 234.208 313.25C233.95 313.179 233.468 313.15 233.229 313.191Z" fill="#835DBB"/>
<path d="M232.342 317.775C231.617 317.849 230.904 318.227 230.437 318.782C230.218 319.039 229.949 319.554 229.859 319.885C229.796 320.109 229.793 320.189 229.781 321.528L229.772 322.935L230.14 323.041C230.925 323.268 231.587 323.407 232.321 323.505C232.917 323.585 234.229 323.617 234.759 323.567C235.751 323.469 236.604 323.271 237.197 323L237.449 322.884L237.434 321.548C237.419 320.059 237.41 319.985 237.212 319.515C236.793 318.531 235.894 317.881 234.81 317.772C234.454 317.736 232.686 317.739 232.342 317.775Z" fill="#835DBB"/>
<path d="M240.706 323.486C240.272 324.145 239.437 325.012 238.73 325.542C235.993 327.599 232.261 327.818 229.273 326.099C228.421 325.612 227.404 324.734 226.735 323.909L226.558 323.695L226.579 324.605C226.606 325.649 226.692 326.062 227.034 326.795C227.334 327.433 227.64 327.861 228.164 328.38C228.919 329.13 229.814 329.612 230.874 329.832C231.318 329.923 231.65 329.933 234.987 329.933H238.612V331.112C238.612 331.76 238.623 332.29 238.633 332.29C238.644 332.29 239.485 331.77 240.497 331.133C243.158 329.451 245.124 328.209 245.922 327.711C246.307 327.47 246.768 327.176 246.955 327.058L247.298 326.844L247.009 326.667C246.853 326.57 245.467 325.703 243.935 324.734C242.398 323.764 241.124 322.972 241.097 322.972C241.07 322.972 240.893 323.202 240.706 323.486Z" fill="#835DBB"/>
<rect x="212.794" y="295.625" width="41.6324" height="45.9871" rx="7.67701" stroke="#835DBB" stroke-width="2.19343" stroke-miterlimit="16" stroke-linejoin="round" stroke-dasharray="7.13 7.13"/>
<rect x="185.537" y="231.228" width="182.486" height="236.423" rx="13.0347" stroke="#835DBB" stroke-width="2.69684" stroke-linecap="round" stroke-dasharray="13.48 13.48"/>
<rect x="13.5396" y="81.394" width="49.6472" height="23.7443" rx="2.69822" fill="#FFE162"/>
<path d="M23.2511 97.2662H19.5064C19.3562 97.2662 19.2456 97.2346 19.1745 97.1714C19.1113 97.1003 19.0797 96.9896 19.0797 96.8395V95.453C19.0797 95.3029 19.1113 95.1963 19.1745 95.1331C19.2456 95.062 19.3562 95.0264 19.5064 95.0264H22.6942C22.7969 95.0264 22.8719 94.9948 22.9193 94.9316C22.9746 94.8605 23.0023 94.7775 23.0023 94.6827C23.0023 94.5484 22.9746 94.4497 22.9193 94.3865C22.8719 94.3233 22.7969 94.2877 22.6942 94.2798L20.9166 94.031C20.3635 93.9519 19.9172 93.7702 19.5775 93.4858C19.2456 93.2014 19.0797 92.7274 19.0797 92.0638V90.8194C19.0797 90.1479 19.297 89.6344 19.7315 89.2789C20.166 88.9154 20.7665 88.7337 21.5328 88.7337H24.851C25.0011 88.7337 25.1077 88.7693 25.1709 88.8404C25.242 88.9036 25.2776 89.0103 25.2776 89.1604V90.5706C25.2776 90.7207 25.242 90.8313 25.1709 90.9024C25.1077 90.9656 25.0011 90.9972 24.851 90.9972H22.0898C21.9871 90.9972 21.9081 91.0328 21.8528 91.1039C21.7975 91.1671 21.7698 91.25 21.7698 91.3527C21.7698 91.4554 21.7975 91.5423 21.8528 91.6134C21.9081 91.6845 21.9871 91.724 22.0898 91.7319L23.8555 91.9689C24.4085 92.048 24.8549 92.2297 25.1946 92.5141C25.5343 92.7985 25.7042 93.2725 25.7042 93.9361V95.1805C25.7042 95.852 25.483 96.3695 25.0406 96.7329C24.6061 97.0884 24.0096 97.2662 23.2511 97.2662ZM30.914 97.2662H28.9942C28.8441 97.2662 28.7335 97.2346 28.6624 97.1714C28.5992 97.1003 28.5676 96.9896 28.5676 96.8395V91.0209H26.8256C26.6755 91.0209 26.5649 90.9893 26.4938 90.9261C26.4305 90.855 26.3989 90.7444 26.3989 90.5943V89.1604C26.3989 89.0103 26.4305 88.9036 26.4938 88.8404C26.5649 88.7693 26.6755 88.7337 26.8256 88.7337H33.0827C33.2328 88.7337 33.3394 88.7693 33.4026 88.8404C33.4737 88.9036 33.5093 89.0103 33.5093 89.1604V90.5943C33.5093 90.7444 33.4737 90.855 33.4026 90.9261C33.3394 90.9893 33.2328 91.0209 33.0827 91.0209H31.3406V96.8395C31.3406 96.9896 31.3051 97.1003 31.234 97.1714C31.1708 97.2346 31.0641 97.2662 30.914 97.2662ZM37.2803 91.2224L36.7233 93.0237H38.5838L38.0269 91.2224C37.9953 91.1513 37.9597 91.0999 37.9202 91.0683C37.8886 91.0367 37.8491 91.0209 37.8017 91.0209H37.5054C37.458 91.0209 37.4146 91.0367 37.3751 91.0683C37.3435 91.0999 37.3119 91.1513 37.2803 91.2224ZM36.6048 96.8395C36.6048 96.9896 36.5692 97.1003 36.4981 97.1714C36.4349 97.2346 36.3283 97.2662 36.1782 97.2662H34.4361C34.286 97.2662 34.1754 97.2346 34.1043 97.1714C34.0411 97.1003 34.0095 96.9896 34.0095 96.8395V93.711C34.0095 93.474 34.0451 93.2014 34.1162 92.8933C34.1952 92.5852 34.3137 92.2257 34.4717 91.8149L35.5027 89.1248C35.5501 88.9905 35.6212 88.8917 35.716 88.8285C35.8187 88.7653 35.9491 88.7337 36.1071 88.7337H39.2949C39.445 88.7337 39.5674 88.7653 39.6622 88.8285C39.765 88.8917 39.84 88.9905 39.8874 89.1248L40.9184 91.8149C41.0764 92.2257 41.191 92.5852 41.2621 92.8933C41.3411 93.2014 41.3806 93.474 41.3806 93.711V96.8395C41.3806 96.9896 41.345 97.1003 41.2739 97.1714C41.2107 97.2346 41.1041 97.2662 40.954 97.2662H39.1645C39.0065 97.2662 38.888 97.2346 38.809 97.1714C38.7379 97.1003 38.7024 96.9896 38.7024 96.8395V95.1805H36.6048V96.8395ZM45.522 90.8668V92.3837H46.4108C46.6162 92.3837 46.7545 92.3324 46.8256 92.2297C46.8967 92.1191 46.9322 91.9847 46.9322 91.8267V91.4238C46.9322 91.2658 46.8967 91.1355 46.8256 91.0328C46.7545 90.9221 46.6162 90.8668 46.4108 90.8668H45.522ZM45.0954 97.2662H43.2704C43.1203 97.2662 43.0097 97.2346 42.9386 97.1714C42.8754 97.1003 42.8438 96.9896 42.8438 96.8395V89.1604C42.8438 89.0103 42.8754 88.9036 42.9386 88.8404C43.0097 88.7693 43.1203 88.7337 43.2704 88.7337H47.2166C48.1015 88.7337 48.7098 88.9194 49.0416 89.2907C49.3813 89.6541 49.5512 90.1282 49.5512 90.7128V91.2579C49.5512 91.5897 49.4998 91.8741 49.3971 92.1112C49.3023 92.3403 49.1325 92.5062 48.8876 92.6089C49.3142 92.6563 49.6578 92.8301 49.9186 93.1303C50.1872 93.4305 50.3215 93.8295 50.3215 94.3272V96.8395C50.3215 96.9896 50.2859 97.1003 50.2148 97.1714C50.1516 97.2346 50.045 97.2662 49.8949 97.2662H48.058C47.9079 97.2662 47.7973 97.2346 47.7262 97.1714C47.663 97.1003 47.6314 96.9896 47.6314 96.8395V95.0264C47.6314 94.8526 47.5958 94.7262 47.5247 94.6472C47.4615 94.5603 47.347 94.5168 47.1811 94.5168H45.522V96.8395C45.522 96.9896 45.4864 97.1003 45.4153 97.1714C45.3521 97.2346 45.2455 97.2662 45.0954 97.2662ZM55.3211 97.2662H53.4013C53.2512 97.2662 53.1406 97.2346 53.0695 97.1714C53.0063 97.1003 52.9747 96.9896 52.9747 96.8395V91.0209H51.2327C51.0826 91.0209 50.972 90.9893 50.9009 90.9261C50.8377 90.855 50.8061 90.7444 50.8061 90.5943V89.1604C50.8061 89.0103 50.8377 88.9036 50.9009 88.8404C50.972 88.7693 51.0826 88.7337 51.2327 88.7337H57.4898C57.6399 88.7337 57.7465 88.7693 57.8097 88.8404C57.8808 88.9036 57.9164 89.0103 57.9164 89.1604V90.5943C57.9164 90.7444 57.8808 90.855 57.8097 90.9261C57.7465 90.9893 57.6399 91.0209 57.4898 91.0209H55.7477V96.8395C55.7477 96.9896 55.7122 97.1003 55.6411 97.1714C55.5779 97.2346 55.4712 97.2662 55.3211 97.2662Z" fill="#835DBB"/>
<rect x="13.5396" y="81.394" width="49.6472" height="23.7443" rx="2.69822" stroke="#835DBB" stroke-width="1.07929" stroke-linejoin="round" stroke-dasharray="6.48 6.48"/>
<defs>
<clipPath id="clip0_22_3">
<rect width="33.7105" height="33.7105" fill="white" transform="translate(108.452 79.9232)"/>
</clipPath>
<clipPath id="clip1_22_3">
<rect width="30.2979" height="30.2979" fill="white" transform="translate(267.762 139.428)"/>
</clipPath>
<clipPath id="clip2_22_3">
<rect width="34.9591" height="34.9591" fill="white" transform="translate(447.08 410.686)"/>
</clipPath>
<clipPath id="clip3_22_3">
<rect width="30.2301" height="30.2301" fill="white" transform="translate(307.263 310.841)"/>
</clipPath>
<clipPath id="clip4_22_3">
<rect width="30.665" height="30.665" fill="white" transform="translate(260.998 400.372)"/>
</clipPath>
</defs>
</svg>
