<svg width="512" height="512" viewBox="0 0 512 512" fill="none" xmlns="http://www.w3.org/2000/svg">
<path d="M137.153 285H111.873C110.86 285 110.113 284.787 109.633 284.36C109.207 283.88 108.993 283.133 108.993 282.12V272.76C108.993 271.747 109.207 271.027 109.633 270.6C110.113 270.12 110.86 269.88 111.873 269.88H133.393C134.087 269.88 134.593 269.667 134.913 269.24C135.287 268.76 135.473 268.2 135.473 267.56C135.473 266.653 135.287 265.987 134.913 265.56C134.593 265.133 134.087 264.893 133.393 264.84L121.393 263.16C117.66 262.627 114.647 261.4 112.353 259.48C110.113 257.56 108.993 254.36 108.993 249.88V241.48C108.993 236.947 110.46 233.48 113.393 231.08C116.327 228.627 120.38 227.4 125.553 227.4H147.953C148.967 227.4 149.687 227.64 150.113 228.12C150.593 228.547 150.833 229.267 150.833 230.28V239.8C150.833 240.813 150.593 241.56 150.113 242.04C149.687 242.467 148.967 242.68 147.953 242.68H129.313C128.62 242.68 128.087 242.92 127.713 243.4C127.34 243.827 127.153 244.387 127.153 245.08C127.153 245.773 127.34 246.36 127.713 246.84C128.087 247.32 128.62 247.587 129.313 247.64L141.233 249.24C144.967 249.773 147.98 251 150.273 252.92C152.567 254.84 153.713 258.04 153.713 262.52V270.92C153.713 275.453 152.22 278.947 149.233 281.4C146.3 283.8 142.273 285 137.153 285ZM177.745 285H165.345C164.331 285 163.585 284.787 163.105 284.36C162.678 283.88 162.465 283.133 162.465 282.12V230.28C162.465 229.267 162.678 228.547 163.105 228.12C163.585 227.64 164.331 227.4 165.345 227.4H177.745C178.758 227.4 179.478 227.64 179.905 228.12C180.385 228.547 180.625 229.267 180.625 230.28V247.64H193.985V230.28C193.985 229.267 194.198 228.547 194.625 228.12C195.105 227.64 195.851 227.4 196.865 227.4H209.265C210.278 227.4 210.998 227.64 211.425 228.12C211.905 228.547 212.145 229.267 212.145 230.28V282.12C212.145 283.133 211.905 283.88 211.425 284.36C210.998 284.787 210.278 285 209.265 285H196.865C195.851 285 195.105 284.787 194.625 284.36C194.198 283.88 193.985 283.133 193.985 282.12V264.36H180.625V282.12C180.625 283.133 180.385 283.88 179.905 284.36C179.478 284.787 178.758 285 177.745 285ZM244.048 244.2L240.288 256.36H252.848L249.088 244.2C248.874 243.72 248.634 243.373 248.368 243.16C248.154 242.947 247.888 242.84 247.568 242.84H245.568C245.248 242.84 244.954 242.947 244.688 243.16C244.474 243.373 244.261 243.72 244.048 244.2ZM239.488 282.12C239.488 283.133 239.248 283.88 238.768 284.36C238.341 284.787 237.621 285 236.608 285H224.848C223.834 285 223.088 284.787 222.608 284.36C222.181 283.88 221.968 283.133 221.968 282.12V261C221.968 259.4 222.208 257.56 222.688 255.48C223.221 253.4 224.021 250.973 225.088 248.2L232.048 230.04C232.368 229.133 232.848 228.467 233.488 228.04C234.181 227.613 235.061 227.4 236.128 227.4H257.648C258.661 227.4 259.488 227.613 260.128 228.04C260.821 228.467 261.328 229.133 261.648 230.04L268.608 248.2C269.674 250.973 270.448 253.4 270.928 255.48C271.461 257.56 271.728 259.4 271.728 261V282.12C271.728 283.133 271.488 283.88 271.008 284.36C270.581 284.787 269.861 285 268.848 285H256.768C255.701 285 254.901 284.787 254.368 284.36C253.888 283.88 253.648 283.133 253.648 282.12V270.92H239.488V282.12ZM299.685 241.8V252.04H305.685C307.072 252.04 308.005 251.693 308.485 251C308.965 250.253 309.205 249.347 309.205 248.28V245.56C309.205 244.493 308.965 243.613 308.485 242.92C308.005 242.173 307.072 241.8 305.685 241.8H299.685ZM296.805 285H284.485C283.472 285 282.725 284.787 282.245 284.36C281.819 283.88 281.605 283.133 281.605 282.12V230.28C281.605 229.267 281.819 228.547 282.245 228.12C282.725 227.64 283.472 227.4 284.485 227.4H311.125C317.099 227.4 321.205 228.653 323.445 231.16C325.739 233.613 326.885 236.813 326.885 240.76V244.44C326.885 246.68 326.539 248.6 325.845 250.2C325.205 251.747 324.059 252.867 322.405 253.56C325.285 253.88 327.605 255.053 329.365 257.08C331.179 259.107 332.085 261.8 332.085 265.16V282.12C332.085 283.133 331.845 283.88 331.365 284.36C330.939 284.787 330.219 285 329.205 285H316.805C315.792 285 315.045 284.787 314.565 284.36C314.139 283.88 313.925 283.133 313.925 282.12V269.88C313.925 268.707 313.685 267.853 313.205 267.32C312.779 266.733 312.005 266.44 310.885 266.44H299.685V282.12C299.685 283.133 299.445 283.88 298.965 284.36C298.539 284.787 297.819 285 296.805 285ZM381.058 285H343.938C342.925 285 342.178 284.787 341.698 284.36C341.272 283.88 341.058 283.133 341.058 282.12V230.28C341.058 229.267 341.272 228.547 341.698 228.12C342.178 227.64 342.925 227.4 343.938 227.4H381.058C382.072 227.4 382.792 227.64 383.218 228.12C383.698 228.547 383.938 229.267 383.938 230.28V239.64C383.938 240.653 383.698 241.4 383.218 241.88C382.792 242.307 382.072 242.52 381.058 242.52H358.978V248.68H374.578C375.592 248.68 376.312 248.92 376.738 249.4C377.218 249.827 377.458 250.547 377.458 251.56V260.12C377.458 261.133 377.218 261.88 376.738 262.36C376.312 262.787 375.592 263 374.578 263H358.978V269.88H381.058C382.072 269.88 382.792 270.12 383.218 270.6C383.698 271.027 383.938 271.747 383.938 272.76V282.12C383.938 283.133 383.698 283.88 383.218 284.36C382.792 284.787 382.072 285 381.058 285ZM420.602 285H407.642C406.629 285 405.882 284.787 405.402 284.36C404.975 283.88 404.762 283.133 404.762 282.12V242.84H393.002C391.989 242.84 391.242 242.627 390.762 242.2C390.335 241.72 390.122 240.973 390.122 239.96V230.28C390.122 229.267 390.335 228.547 390.762 228.12C391.242 227.64 391.989 227.4 393.002 227.4H435.242C436.255 227.4 436.975 227.64 437.402 228.12C437.882 228.547 438.122 229.267 438.122 230.28V239.96C438.122 240.973 437.882 241.72 437.402 242.2C436.975 242.627 436.255 242.84 435.242 242.84H423.482V282.12C423.482 283.133 423.242 283.88 422.762 284.36C422.335 284.787 421.615 285 420.602 285ZM475.102 285H462.142C461.129 285 460.382 284.787 459.902 284.36C459.475 283.88 459.262 283.133 459.262 282.12V271.88L447.022 255.48C445.795 253.827 444.969 252.387 444.542 251.16C444.169 249.933 443.982 248.093 443.982 245.64V230.28C443.982 229.267 444.195 228.547 444.622 228.12C445.102 227.64 445.849 227.4 446.862 227.4H459.182C460.195 227.4 460.915 227.64 461.342 228.12C461.822 228.547 462.062 229.267 462.062 230.28V243.4C462.062 243.933 462.089 244.493 462.142 245.08C462.195 245.667 462.409 246.227 462.782 246.76L466.462 252.52C466.729 253 466.995 253.347 467.262 253.56C467.582 253.773 467.955 253.88 468.382 253.88H469.182C469.609 253.88 469.955 253.773 470.222 253.56C470.542 253.347 470.835 253 471.102 252.52L474.782 246.76C475.155 246.227 475.369 245.667 475.422 245.08C475.475 244.493 475.502 243.933 475.502 243.4V230.28C475.502 229.267 475.715 228.547 476.142 228.12C476.622 227.64 477.369 227.4 478.382 227.4H490.302C491.315 227.4 492.035 227.64 492.462 228.12C492.942 228.547 493.182 229.267 493.182 230.28V245.64C493.182 248.093 492.969 249.933 492.542 251.16C492.115 252.387 491.315 253.827 490.142 255.48L477.982 271.96V282.12C477.982 283.133 477.742 283.88 477.262 284.36C476.835 284.787 476.115 285 475.102 285Z" fill="#FFE162"/>
<path fill-rule="evenodd" clip-rule="evenodd" d="M52.3644 233.928C56.7629 233.928 60.3286 230.363 60.3286 225.964C60.3286 221.566 56.7629 218 52.3644 218C47.9659 218 44.4002 221.566 44.4002 225.964C44.4002 230.363 47.9659 233.928 52.3644 233.928ZM43.6803 233.616C40.4438 230.35 37.4071 227.285 32.205 230.693C31.196 231.354 30.6539 232.258 30.4966 233.325C29.3183 233.452 28.3457 234.024 27.693 235.137C24.5001 240.584 27.4793 243.479 30.6639 246.573C33.1609 248.999 35.7841 251.548 35.6572 255.546C35.5444 259.099 33.0256 261.594 30.6165 263.981C27.3498 267.217 24.2848 270.254 27.693 275.456C28.394 276.526 29.3685 277.071 30.5201 277.189C30.5676 278.527 31.1407 279.629 32.3663 280.343C37.8222 283.52 40.7083 280.532 43.7932 277.338C46.212 274.834 48.7532 272.204 52.7513 272.319C56.3045 272.422 58.8073 274.933 61.2012 277.335C64.4472 280.592 67.4928 283.649 72.6849 280.225C73.8165 279.479 74.3577 278.428 74.4254 277.185C75.5998 277.057 76.5692 276.485 77.2203 275.374C80.4132 269.927 77.434 267.033 74.2494 263.938C71.7524 261.512 69.1292 258.963 69.2561 254.966C69.3689 251.413 71.8877 248.917 74.2968 246.53C77.5635 243.294 80.6285 240.257 77.2203 235.055C76.503 233.96 75.4994 233.415 74.3129 233.315C74.1486 232.218 73.5796 231.312 72.5238 230.693C67.0771 227.5 64.1824 230.479 61.0882 233.664C58.6621 236.161 56.1134 238.784 52.1156 238.657C48.5627 238.544 46.0672 236.026 43.6803 233.616ZM74.3129 233.315C74.8906 237.172 70.462 243.381 64.5912 247.707C65.9705 249.92 66.7673 252.533 66.7673 255.332C66.7673 258.233 65.9116 260.934 64.4389 263.197C70.0496 267.329 74.6413 273.226 74.4254 277.185C70.5568 277.609 64.4643 273.222 60.2021 267.435C57.9384 268.91 55.2354 269.767 52.3322 269.767C49.4727 269.767 46.8074 268.936 44.5648 267.502C40.353 273.088 34.421 277.588 30.5201 277.189C30.3821 273.305 34.6724 267.43 40.2815 263.282C38.7745 261.002 37.8971 258.27 37.8971 255.332C37.8971 252.473 38.7281 249.809 40.1618 247.566C34.4807 243.284 29.9218 237.221 30.4966 233.325C34.3648 232.909 40.4495 237.292 44.7084 243.072C46.9208 241.694 49.5335 240.897 52.3322 240.897C55.2303 240.897 57.929 241.751 60.1902 243.221C64.3821 237.576 70.3618 232.98 74.3129 233.315ZM44.5752 285.036C44.5624 280.637 48.1177 277.061 52.5162 277.049C56.9147 277.036 60.4907 280.591 60.5035 284.99C60.5163 289.388 56.961 292.964 52.5625 292.977C48.164 292.99 44.5879 289.434 44.5752 285.036ZM81.9491 263.179C77.5506 263.179 73.9849 259.613 73.9849 255.215C73.9849 250.816 77.5506 247.25 81.9491 247.25C86.3476 247.25 89.9133 250.816 89.9133 255.215C89.9133 259.613 86.3476 263.179 81.9491 263.179ZM22.9642 247.333C27.3627 247.333 30.9284 250.898 30.9284 255.297C30.9284 259.695 27.3627 263.261 22.9642 263.261C18.5657 263.261 15 259.695 15 255.297C15 250.898 18.5657 247.333 22.9642 247.333Z" fill="#FFE162"/>
<path fill-rule="evenodd" clip-rule="evenodd" d="M52.3322 266.283C58.3801 266.283 63.283 261.38 63.283 255.332C63.283 249.284 58.3801 244.381 52.3322 244.381C46.2842 244.381 41.3814 249.284 41.3814 255.332C41.3814 261.38 46.2842 266.283 52.3322 266.283ZM51.3367 247.866C51.3367 247.591 51.5595 247.368 51.8344 247.368H53.3277C53.6026 247.368 53.8255 247.591 53.8255 247.866V248.861H56.4612C56.6981 248.861 56.8664 248.917 56.9661 249.03C57.0783 249.129 57.1344 249.298 57.1344 249.534V251.76C57.1344 251.997 57.0783 252.171 56.9661 252.283C56.8664 252.383 56.6981 252.433 56.4612 252.433H53.8255V253.823L54.8905 253.966C55.7631 254.091 56.4674 254.378 57.0035 254.826C57.5395 255.275 57.8076 256.023 57.8076 257.07V259.034C57.8076 260.093 57.4585 260.91 56.7604 261.483C56.0748 262.044 55.1335 262.325 53.9368 262.325H53.8255V263.296C53.8255 263.571 53.6026 263.794 53.3277 263.794H51.8344C51.5595 263.794 51.3367 263.571 51.3367 263.296V262.325H48.0277C47.7909 262.325 47.6164 262.275 47.5042 262.175C47.4044 262.063 47.3546 261.889 47.3546 261.652V259.464C47.3546 259.227 47.4044 259.059 47.5042 258.959C47.6164 258.847 47.7909 258.791 48.0277 258.791H51.3367V257.372L50.253 257.22C49.3803 257.095 48.676 256.809 48.1399 256.36C47.6164 255.911 47.3546 255.163 47.3546 254.116V252.152C47.3546 251.093 47.6974 250.282 48.383 249.721C49.0687 249.148 50.0161 248.861 51.2254 248.861H51.3367V247.866Z" fill="#835DBB"/>
<circle cx="52.5394" cy="285.013" r="7.9642" transform="rotate(179.833 52.5394 285.013)" fill="#835DBB"/>
<circle cx="81.9491" cy="255.215" r="7.9642" transform="rotate(90 81.9491 255.215)" fill="#835DBB"/>
<circle cx="52.3645" cy="225.964" r="7.9642" fill="#835DBB"/>
<circle cx="22.9642" cy="255.297" r="7.9642" transform="rotate(-90 22.9642 255.297)" fill="#835DBB"/>
</svg>
