<svg width="482" height="96" viewBox="0 0 482 96" fill="none" xmlns="http://www.w3.org/2000/svg">
<path d="M122.153 77H96.8733C95.86 77 95.1133 76.7867 94.6333 76.36C94.2066 75.88 93.9933 75.1333 93.9933 74.12V64.76C93.9933 63.7467 94.2066 63.0267 94.6333 62.6C95.1133 62.12 95.86 61.88 96.8733 61.88H118.393C119.087 61.88 119.593 61.6667 119.913 61.24C120.287 60.76 120.473 60.2 120.473 59.56C120.473 58.6533 120.287 57.9867 119.913 57.56C119.593 57.1333 119.087 56.8933 118.393 56.84L106.393 55.16C102.66 54.6267 99.6466 53.4 97.3533 51.48C95.1133 49.56 93.9933 46.36 93.9933 41.88V33.48C93.9933 28.9467 95.46 25.48 98.3933 23.08C101.327 20.6267 105.38 19.4 110.553 19.4H132.953C133.967 19.4 134.687 19.64 135.113 20.12C135.593 20.5467 135.833 21.2667 135.833 22.28V31.8C135.833 32.8133 135.593 33.56 135.113 34.04C134.687 34.4667 133.967 34.68 132.953 34.68H114.313C113.62 34.68 113.087 34.92 112.713 35.4C112.34 35.8267 112.153 36.3867 112.153 37.08C112.153 37.7733 112.34 38.36 112.713 38.84C113.087 39.32 113.62 39.5867 114.313 39.64L126.233 41.24C129.967 41.7733 132.98 43 135.273 44.92C137.567 46.84 138.713 50.04 138.713 54.52V62.92C138.713 67.4533 137.22 70.9467 134.233 73.4C131.3 75.8 127.273 77 122.153 77ZM162.745 77H150.345C149.331 77 148.585 76.7867 148.105 76.36C147.678 75.88 147.465 75.1333 147.465 74.12V22.28C147.465 21.2667 147.678 20.5467 148.105 20.12C148.585 19.64 149.331 19.4 150.345 19.4H162.745C163.758 19.4 164.478 19.64 164.905 20.12C165.385 20.5467 165.625 21.2667 165.625 22.28V39.64H178.985V22.28C178.985 21.2667 179.198 20.5467 179.625 20.12C180.105 19.64 180.851 19.4 181.865 19.4H194.265C195.278 19.4 195.998 19.64 196.425 20.12C196.905 20.5467 197.145 21.2667 197.145 22.28V74.12C197.145 75.1333 196.905 75.88 196.425 76.36C195.998 76.7867 195.278 77 194.265 77H181.865C180.851 77 180.105 76.7867 179.625 76.36C179.198 75.88 178.985 75.1333 178.985 74.12V56.36H165.625V74.12C165.625 75.1333 165.385 75.88 164.905 76.36C164.478 76.7867 163.758 77 162.745 77ZM229.048 36.2L225.288 48.36H237.848L234.088 36.2C233.874 35.72 233.634 35.3733 233.368 35.16C233.154 34.9467 232.888 34.84 232.568 34.84H230.568C230.248 34.84 229.954 34.9467 229.688 35.16C229.474 35.3733 229.261 35.72 229.048 36.2ZM224.488 74.12C224.488 75.1333 224.248 75.88 223.768 76.36C223.341 76.7867 222.621 77 221.608 77H209.848C208.834 77 208.088 76.7867 207.608 76.36C207.181 75.88 206.968 75.1333 206.968 74.12V53C206.968 51.4 207.208 49.56 207.688 47.48C208.221 45.4 209.021 42.9733 210.088 40.2L217.048 22.04C217.368 21.1333 217.848 20.4667 218.488 20.04C219.181 19.6133 220.061 19.4 221.128 19.4H242.648C243.661 19.4 244.488 19.6133 245.128 20.04C245.821 20.4667 246.328 21.1333 246.648 22.04L253.608 40.2C254.674 42.9733 255.448 45.4 255.928 47.48C256.461 49.56 256.728 51.4 256.728 53V74.12C256.728 75.1333 256.488 75.88 256.008 76.36C255.581 76.7867 254.861 77 253.848 77H241.768C240.701 77 239.901 76.7867 239.368 76.36C238.888 75.88 238.648 75.1333 238.648 74.12V62.92H224.488V74.12ZM284.685 33.8V44.04H290.685C292.072 44.04 293.005 43.6933 293.485 43C293.965 42.2533 294.205 41.3467 294.205 40.28V37.56C294.205 36.4933 293.965 35.6133 293.485 34.92C293.005 34.1733 292.072 33.8 290.685 33.8H284.685ZM281.805 77H269.485C268.472 77 267.725 76.7867 267.245 76.36C266.819 75.88 266.605 75.1333 266.605 74.12V22.28C266.605 21.2667 266.819 20.5467 267.245 20.12C267.725 19.64 268.472 19.4 269.485 19.4H296.125C302.099 19.4 306.205 20.6533 308.445 23.16C310.739 25.6133 311.885 28.8133 311.885 32.76V36.44C311.885 38.68 311.539 40.6 310.845 42.2C310.205 43.7467 309.059 44.8667 307.405 45.56C310.285 45.88 312.605 47.0533 314.365 49.08C316.179 51.1067 317.085 53.8 317.085 57.16V74.12C317.085 75.1333 316.845 75.88 316.365 76.36C315.939 76.7867 315.219 77 314.205 77H301.805C300.792 77 300.045 76.7867 299.565 76.36C299.139 75.88 298.925 75.1333 298.925 74.12V61.88C298.925 60.7067 298.685 59.8533 298.205 59.32C297.779 58.7333 297.005 58.44 295.885 58.44H284.685V74.12C284.685 75.1333 284.445 75.88 283.965 76.36C283.539 76.7867 282.819 77 281.805 77ZM366.058 77H328.938C327.925 77 327.178 76.7867 326.698 76.36C326.272 75.88 326.058 75.1333 326.058 74.12V22.28C326.058 21.2667 326.272 20.5467 326.698 20.12C327.178 19.64 327.925 19.4 328.938 19.4H366.058C367.072 19.4 367.792 19.64 368.218 20.12C368.698 20.5467 368.938 21.2667 368.938 22.28V31.64C368.938 32.6533 368.698 33.4 368.218 33.88C367.792 34.3067 367.072 34.52 366.058 34.52H343.978V40.68H359.578C360.592 40.68 361.312 40.92 361.738 41.4C362.218 41.8267 362.458 42.5467 362.458 43.56V52.12C362.458 53.1333 362.218 53.88 361.738 54.36C361.312 54.7867 360.592 55 359.578 55H343.978V61.88H366.058C367.072 61.88 367.792 62.12 368.218 62.6C368.698 63.0267 368.938 63.7467 368.938 64.76V74.12C368.938 75.1333 368.698 75.88 368.218 76.36C367.792 76.7867 367.072 77 366.058 77ZM405.602 77H392.642C391.629 77 390.882 76.7867 390.402 76.36C389.975 75.88 389.762 75.1333 389.762 74.12V34.84H378.002C376.989 34.84 376.242 34.6267 375.762 34.2C375.335 33.72 375.122 32.9733 375.122 31.96V22.28C375.122 21.2667 375.335 20.5467 375.762 20.12C376.242 19.64 376.989 19.4 378.002 19.4H420.242C421.255 19.4 421.975 19.64 422.402 20.12C422.882 20.5467 423.122 21.2667 423.122 22.28V31.96C423.122 32.9733 422.882 33.72 422.402 34.2C421.975 34.6267 421.255 34.84 420.242 34.84H408.482V74.12C408.482 75.1333 408.242 75.88 407.762 76.36C407.335 76.7867 406.615 77 405.602 77ZM460.102 77H447.142C446.129 77 445.382 76.7867 444.902 76.36C444.475 75.88 444.262 75.1333 444.262 74.12V63.88L432.022 47.48C430.795 45.8267 429.969 44.3867 429.542 43.16C429.169 41.9333 428.982 40.0933 428.982 37.64V22.28C428.982 21.2667 429.195 20.5467 429.622 20.12C430.102 19.64 430.849 19.4 431.862 19.4H444.182C445.195 19.4 445.915 19.64 446.342 20.12C446.822 20.5467 447.062 21.2667 447.062 22.28V35.4C447.062 35.9333 447.089 36.4933 447.142 37.08C447.195 37.6667 447.409 38.2267 447.782 38.76L451.462 44.52C451.729 45 451.995 45.3467 452.262 45.56C452.582 45.7733 452.955 45.88 453.382 45.88H454.182C454.609 45.88 454.955 45.7733 455.222 45.56C455.542 45.3467 455.835 45 456.102 44.52L459.782 38.76C460.155 38.2267 460.369 37.6667 460.422 37.08C460.475 36.4933 460.502 35.9333 460.502 35.4V22.28C460.502 21.2667 460.715 20.5467 461.142 20.12C461.622 19.64 462.369 19.4 463.382 19.4H475.302C476.315 19.4 477.035 19.64 477.462 20.12C477.942 20.5467 478.182 21.2667 478.182 22.28V37.64C478.182 40.0933 477.969 41.9333 477.542 43.16C477.115 44.3867 476.315 45.8267 475.142 47.48L462.982 63.96V74.12C462.982 75.1333 462.742 75.88 462.262 76.36C461.835 76.7867 461.115 77 460.102 77Z" fill="#91C483"/>
<path fill-rule="evenodd" clip-rule="evenodd" d="M37.3644 25.9284C41.7629 25.9284 45.3286 22.3627 45.3286 17.9642C45.3286 13.5657 41.7629 10 37.3644 10C32.9659 10 29.4002 13.5657 29.4002 17.9642C29.4002 22.3627 32.9659 25.9284 37.3644 25.9284ZM28.6803 25.6165C25.4438 22.3498 22.4071 19.2848 17.205 22.693C16.196 23.3541 15.6539 24.2584 15.4966 25.325C14.3183 25.4519 13.3457 26.0239 12.693 27.1374C9.50009 32.5841 12.4793 35.4788 15.6639 38.573C18.1609 40.9991 20.7841 43.5479 20.6572 47.5457C20.5444 51.0985 18.0256 53.5941 15.6165 55.981C12.3498 59.2175 9.28476 62.2542 12.693 67.4562C13.394 68.5262 14.3685 69.0711 15.5201 69.189C15.5676 70.527 16.1407 71.6288 17.3663 72.3425C22.8222 75.5196 25.7083 72.5319 28.7932 69.3384C31.212 66.8344 33.7532 64.2037 37.7513 64.319C41.3045 64.4215 43.8073 66.933 46.2012 69.3352C49.4472 72.5924 52.4928 75.6487 57.6849 72.2253C58.8165 71.4792 59.3577 70.4277 59.4254 69.1854C60.5998 69.0567 61.5692 68.4847 62.2203 67.3739C65.4132 61.9272 62.434 59.0325 59.2494 55.9384C56.7524 53.5122 54.1292 50.9635 54.2561 46.9657C54.3689 43.4128 56.8877 40.9173 59.2968 38.5304C62.5635 35.2939 65.6285 32.2572 62.2203 27.0552C61.503 25.9604 60.4994 25.4153 59.3129 25.3149C59.1486 24.2183 58.5796 23.3118 57.5238 22.693C52.0771 19.5001 49.1824 22.4793 46.0882 25.6639C43.6621 28.1609 41.1134 30.7841 37.1156 30.6572C33.5627 30.5444 31.0672 28.0256 28.6803 25.6165ZM59.3129 25.3149C59.8906 29.1716 55.462 35.3807 49.5912 39.7069C50.9705 41.9196 51.7673 44.5328 51.7673 47.3322C51.7673 50.2331 50.9116 52.9341 49.4389 55.1966C55.0496 59.3286 59.6413 65.2263 59.4254 69.1854C55.5568 69.6093 49.4643 65.222 45.2021 59.4354C42.9384 60.9103 40.2354 61.7673 37.3322 61.7673C34.4727 61.7673 31.8074 60.9359 29.5648 59.5015C25.353 65.0877 19.421 69.5884 15.5201 69.189C15.3821 65.3048 19.6724 59.4302 25.2815 55.2819C23.7745 53.0021 22.8971 50.2696 22.8971 47.3322C22.8971 44.4734 23.7281 41.8087 25.1618 39.5665C19.4807 35.2837 14.9218 29.2215 15.4966 25.325C19.3648 24.9088 25.4495 29.2917 29.7084 35.0722C31.9208 33.6936 34.5335 32.8971 37.3322 32.8971C40.2303 32.8971 42.929 33.7512 45.1902 35.2213C49.3821 29.5761 55.3618 24.9805 59.3129 25.3149ZM29.5752 77.0358C29.5624 72.6373 33.1177 69.0613 37.5162 69.0485C41.9147 69.0357 45.4907 72.591 45.5035 76.9895C45.5163 81.388 41.961 84.9641 37.5625 84.9769C33.164 84.9896 29.5879 81.4343 29.5752 77.0358ZM66.9491 55.1788C62.5506 55.1788 58.9849 51.6131 58.9849 47.2146C58.9849 42.816 62.5506 39.2504 66.9491 39.2504C71.3476 39.2504 74.9133 42.816 74.9133 47.2146C74.9133 51.6131 71.3476 55.1788 66.9491 55.1788ZM7.9642 39.3326C12.3627 39.3326 15.9284 42.8983 15.9284 47.2968C15.9284 51.6953 12.3627 55.261 7.9642 55.261C3.5657 55.261 0 51.6953 0 47.2968C0 42.8983 3.5657 39.3326 7.9642 39.3326Z" fill="#91C483"/>
<path fill-rule="evenodd" clip-rule="evenodd" d="M37.3322 58.283C43.3801 58.283 48.283 53.3802 48.283 47.3322C48.283 41.2843 43.3801 36.3814 37.3322 36.3814C31.2842 36.3814 26.3814 41.2843 26.3814 47.3322C26.3814 53.3802 31.2842 58.283 37.3322 58.283ZM36.3367 39.8658C36.3367 39.5909 36.5595 39.368 36.8344 39.368H38.3277C38.6026 39.368 38.8255 39.5909 38.8255 39.8658V40.8613H41.4612C41.6981 40.8613 41.8664 40.9174 41.9661 41.0296C42.0783 41.1293 42.1344 41.2976 42.1344 41.5345V43.7597C42.1344 43.9966 42.0783 44.1711 41.9661 44.2833C41.8664 44.383 41.6981 44.4329 41.4612 44.4329H38.8255V45.8233L39.8905 45.9662C40.7631 46.0909 41.4674 46.3776 42.0035 46.8264C42.5395 47.2752 42.8076 48.0232 42.8076 49.0704V51.0338C42.8076 52.0934 42.4585 52.91 41.7604 53.4834C41.0748 54.0444 40.1335 54.3249 38.9368 54.3249H38.8255V55.2964C38.8255 55.5713 38.6026 55.7942 38.3277 55.7942H36.8344C36.5595 55.7942 36.3367 55.5713 36.3367 55.2964V54.3249H33.0277C32.7909 54.3249 32.6164 54.2751 32.5042 54.1753C32.4044 54.0631 32.3546 53.8886 32.3546 53.6517V51.4639C32.3546 51.227 32.4044 51.0587 32.5042 50.959C32.6164 50.8468 32.7909 50.7907 33.0277 50.7907H36.3367V49.3717L35.253 49.22C34.3803 49.0953 33.676 48.8086 33.1399 48.3598C32.6164 47.911 32.3546 47.163 32.3546 46.1158V44.1524C32.3546 43.0928 32.6974 42.2824 33.383 41.7215C34.0687 41.148 35.0161 40.8613 36.2254 40.8613H36.3367V39.8658Z" fill="#FFE162"/>
<circle cx="37.5393" cy="77.0127" r="7.9642" transform="rotate(179.833 37.5393 77.0127)" fill="#FFE162"/>
<circle cx="66.9491" cy="47.2146" r="7.9642" transform="rotate(90 66.9491 47.2146)" fill="#FFE162"/>
<circle cx="37.3644" cy="17.9642" r="7.9642" fill="#FFE162"/>
<circle cx="7.9642" cy="47.2968" r="7.9642" transform="rotate(-90 7.9642 47.2968)" fill="#FFE162"/>
</svg>
